<svg width="24" height="24" viewBox="0 0 24 24" fill="none" xmlns="http://www.w3.org/2000/svg">
<path d="M23.1679 0.990281L15.4556 1.04887C14.7308 2.36062 13.8659 3.51778 12.9167 4.602C13.1985 4.67217 13.4826 4.74239 13.7617 4.8128L14.4034 4.97466L14.0037 5.50219C11.6405 8.61951 11.9116 12.1625 12.7212 15.5191L11.8695 15.7245C11.0802 12.4519 10.7666 8.77805 12.9307 5.50861C8.80245 4.48219 4.32354 3.47264 1.05382 1.31892C0.970855 1.54814 1.00648 1.79644 1.15986 2.12658C1.27362 2.37136 1.46529 2.64422 1.72892 2.92894C4.22089 4.70728 7.84414 6.02016 10.6248 6.45244L10.4902 7.31808C7.59101 6.86733 3.94451 5.56509 1.30104 3.69806C1.32964 3.97711 1.42339 4.27898 1.60043 4.60556C1.92471 5.20359 2.50395 5.84728 3.27387 6.42933C3.31325 6.45909 3.35342 6.48862 3.39373 6.51806C5.3885 7.58105 7.78573 8.34216 9.99078 8.4945L9.93045 9.36844C7.06418 9.17053 4.00873 8.04562 1.69582 6.52102C1.74411 6.75173 1.84831 7.00837 2.01856 7.28883C2.36389 7.85789 2.95971 8.48339 3.71684 9.05484C5.55734 9.891 7.54203 10.5988 9.7459 10.7645L9.68028 11.6381C7.05045 11.4404 4.75217 10.5252 2.69107 9.54239C2.86451 10.4622 3.50131 11.1549 4.51573 11.7364C5.77282 12.457 7.57479 12.9281 9.47614 13.2049L9.82568 13.2558L9.85006 13.6081C9.9004 14.3352 10.0642 14.6784 10.3067 15.0928L9.55062 15.5352C9.31953 15.1402 9.11534 14.6703 9.02131 14.0147C7.50706 13.7763 6.04934 13.4234 4.83232 12.8773C4.53045 13.2406 4.23307 13.6151 3.94198 14.0039C4.71612 15.1175 5.37636 16.0212 6.41604 17.0873L7.68612 16.6435L8.12407 16.4912L8.25148 16.9379C8.9577 19.4247 11.0435 21.3237 13.5762 22.2729C15.8265 23.1162 18.4045 23.1932 20.6104 22.3007C17.3914 20.5393 15.2378 16.5019 14.2457 12.9316L14.1929 12.7368L14.3043 12.5697C16.3373 9.52894 19.9617 6.9788 23.1679 5.81114V0.990281Z" fill="#474442"/>
</svg>
