<svg width="24" height="24" viewBox="0 0 24 24" fill="none" xmlns="http://www.w3.org/2000/svg">
<path d="M12 2C10.6114 2 9.49606 3.12775 9.49606 4.52961C9.49606 5.93009 10.6114 7.05692 12 7.05692C13.3886 7.05692 14.5039 5.93009 14.5039 4.52961C14.5039 3.12775 13.3886 2 12 2ZM9.05445 7.7882C8.79495 7.7882 8.54911 7.8066 8.32603 7.85259C7.42006 8.03656 6.77359 8.57008 6.36385 9.48074C5.9359 10.4282 5.81298 11.808 6.0998 13.5281L6.37296 13.7995C7.00122 14.4342 8.01645 14.7837 9.04079 14.7837C10.0014 14.7837 10.9574 14.4756 11.5903 13.9099V8.4689C10.6342 8.01817 9.77832 7.802 9.05445 7.7882ZM14.9455 7.7882C14.2217 7.802 13.3658 8.01817 12.4097 8.4689V13.9099C13.0426 14.4756 13.9986 14.7837 14.9592 14.7837C15.9835 14.7837 16.9988 14.4342 17.627 13.7995L17.9002 13.5281C18.187 11.808 18.0641 10.4282 17.6361 9.48074C17.2264 8.57008 16.5799 8.03656 15.674 7.85259C15.4509 7.8066 15.205 7.7882 14.9455 7.7882ZM5.42601 8.4505H5.41691C4.05112 8.4827 2.90386 9.00701 2.22096 9.92687C1.61546 10.7455 1.3332 11.9 1.60181 13.4223C1.64278 13.6569 1.69741 13.9053 1.77025 14.1582C2.88565 15.0091 4.24233 15.0137 5.36227 14.172C4.94343 12.1115 5.04814 10.4052 5.61722 9.14039C5.72648 8.89663 5.85396 8.67127 5.99964 8.4643C5.86761 8.4551 5.73559 8.4505 5.60812 8.4505H5.43056C5.42601 8.4505 5.42601 8.4459 5.42601 8.4505ZM18.574 8.4505C18.574 8.4459 18.574 8.4505 18.5694 8.4505H18.3919C18.2644 8.4505 18.1324 8.4551 18.0004 8.4643C18.146 8.67127 18.2735 8.89663 18.3828 9.14039C18.9519 10.4052 19.0566 12.1115 18.6377 14.172C19.7531 15.0137 21.1144 15.0091 22.2297 14.1582C22.298 13.9053 22.3572 13.6569 22.3982 13.4223C22.6668 11.9 22.3845 10.7455 21.779 9.92687C21.0961 9.00701 19.9489 8.4827 18.5831 8.4505H18.574ZM6.39117 14.8711C6.7053 16.0715 7.19698 17.3961 7.88898 18.8311H10.5568L11.5903 16.2233V14.9355C10.8436 15.3954 9.93766 15.6116 9.04079 15.6116C8.0984 15.6116 7.15145 15.3724 6.39117 14.8711ZM17.6088 14.8711C16.8485 15.3724 15.9016 15.6116 14.9592 15.6116C14.0623 15.6116 13.1564 15.3954 12.4097 14.9355V16.2233L13.4432 18.8311H16.111C16.803 17.3961 17.2947 16.0715 17.6088 14.8711ZM5.56259 15.0275C4.51549 15.6668 3.28172 15.768 2.17088 15.3218C2.60794 16.3797 3.26807 17.5525 4.1968 18.8311H6.9739C6.33654 17.4697 5.87217 16.2003 5.56259 15.0275ZM18.4374 15.0275C18.1278 16.2003 17.6635 17.4697 17.0261 18.8311H19.8032C20.7319 17.5525 21.3921 16.3797 21.8291 15.3218C20.7228 15.768 19.4845 15.6668 18.4374 15.0275ZM12 17.4145L10.9939 19.9625L12 22L13.0061 19.9625L12 17.4145ZM4.5123 19.659L5.03448 21.7746H6.64156L5.59446 20.7168L6.64156 19.659H4.5123ZM8.62195 19.659L9.37769 20.4224L9.6645 20.7168L8.6174 21.7746H10.9711L10.0925 19.9993L10.229 19.659H8.62195ZM13.771 19.659L13.8393 19.8291L13.9075 19.9993L13.0289 21.7746H15.3826L14.3355 20.7168L15.3826 19.659H13.771ZM17.363 19.659L18.1187 20.4224L18.4055 20.7168L17.3584 21.7746H18.9655L19.4891 19.659H17.363ZM7.62948 19.8291L6.75082 20.7168L7.62948 21.6045L8.50814 20.7168L7.62948 19.8291ZM16.3705 19.8291L15.4919 20.7168L16.3705 21.6045L17.2492 20.7168L16.3705 19.8291Z" fill="#F1EEE4"/>
</svg>
