<svg width="24" height="24" viewBox="0 0 24 24" fill="none" xmlns="http://www.w3.org/2000/svg">
<path d="M12.2607 3.01317C11.0587 2.97834 9.86191 3.18503 8.74124 3.62102C7.62057 4.05701 6.59877 4.71343 5.73635 5.55141C4.87392 6.38938 4.1884 7.39189 3.72038 8.49956C3.25235 9.60723 3.01134 10.7976 3.01161 12C3.00076 13.1873 3.22524 14.365 3.67208 15.465C4.11892 16.565 4.77927 17.5656 5.61498 18.409C6.4507 19.2524 7.44523 19.9218 8.54112 20.3787C9.63702 20.8356 10.8126 21.0708 11.9999 21.0708C13.1872 21.0708 14.3628 20.8356 15.4587 20.3787C16.5545 19.9218 17.5491 19.2524 18.3848 18.409C19.2205 17.5656 19.8809 16.565 20.3277 15.465C20.7745 14.365 20.999 13.1873 20.9882 12C20.9887 9.66097 20.0774 7.41382 18.4478 5.73581C16.8182 4.0578 14.5987 3.08112 12.2607 3.01317ZM12.0439 3.44095L12.4628 3.68264V4.16606L12.0438 4.40775L11.6263 4.16611V3.68264L12.0439 3.44095ZM12.2093 4.81205C14.0794 4.86654 15.8547 5.64774 17.1582 6.98981C18.4617 8.33188 19.1909 10.1291 19.1908 12C19.184 13.9027 18.4233 15.7251 17.0755 17.068C15.7277 18.411 13.9026 19.165 11.9999 19.165C10.0973 19.165 8.27216 18.411 6.92435 17.068C5.57654 15.7251 4.8159 13.9027 4.80903 12C4.80901 11.0381 5.00201 10.0859 5.37659 9.19985C5.75118 8.31381 6.29973 7.51193 6.98977 6.8417C7.67981 6.17146 8.49732 5.64648 9.39389 5.29785C10.2905 4.94923 11.2479 4.78403 12.2094 4.81205H12.2093ZM11.6689 5.75095C10.583 5.80697 9.53036 6.14473 8.61462 6.73102V17.2604C9.52951 17.8497 10.5822 18.1904 11.6689 18.249V5.75105V5.75095ZM12.4979 5.76567V18.2403C13.5609 18.1548 14.5845 17.7994 15.4716 17.2076V6.79692C14.5843 6.20565 13.5608 5.85069 12.4979 5.76567ZM7.787 7.37555C7.14262 7.9615 6.62754 8.67542 6.27466 9.47169C5.92179 10.268 5.73888 11.1291 5.73762 12C5.73807 12.872 5.92059 13.7342 6.27349 14.5316C6.62639 15.3289 7.14189 16.0437 7.787 16.6304V7.37559V7.37555ZM4.94075 7.45172L5.35826 7.69336V8.17523L4.94079 8.41697L4.52187 8.17528V7.69341L4.94075 7.45172ZM19.0267 7.45172L19.4457 7.69336V8.17523L19.0267 8.41697L18.6093 8.17528V7.69341L19.0267 7.45167L19.0267 7.45172ZM16.3007 7.45608V16.5483C16.9197 15.9634 17.4129 15.2584 17.7501 14.4763C18.0874 13.6943 18.2616 12.8517 18.2621 12C18.261 11.1491 18.0865 10.3073 17.7493 9.52609C17.4121 8.74484 16.9192 8.04051 16.3007 7.45608ZM19.0107 15.5713L19.4296 15.813V16.2964L19.0106 16.5381L18.5931 16.2964V15.813L19.0107 15.5713ZM4.95692 15.605L5.37589 15.8467V16.3301L4.95692 16.5718L4.53795 16.3301V15.8467L4.95692 15.605V15.605ZM11.9838 19.5982L12.4027 19.8398V20.3233L11.9838 20.565L11.5663 20.3232V19.8399L11.9838 19.5982V19.5982Z" fill="#474442"/>
</svg>
