<svg width="29" height="29" viewBox="0 0 29 29" fill="none" xmlns="http://www.w3.org/2000/svg">
<path d="M9.95673 19.4163L6.729 22.644L14.2996 27.7149L21.7843 22.6681L18.5305 19.4163" stroke="#474442" stroke-width="1.44828" stroke-linejoin="round"/>
<path d="M6.98315 10.4669C7.72274 4.04039 14.3616 4.73653 14.3616 2.4386C14.3616 4.8215 21.0005 4.05005 21.7401 10.4669" stroke="#474442" stroke-width="1.44828" stroke-linejoin="round"/>
<path d="M5.94995 10.9052L14.3046 8.56189L22.5636 10.8782V16.9947L14.3046 21.5983L5.94995 16.9677V10.9052Z" stroke="#474442" stroke-width="1.44828" stroke-linejoin="round"/>
<path d="M14.3083 14.2768V18.9393M11.5228 14.2759V16.9291M8.73633 14.2759V15.8246M16.9896 14.2759V16.9291M19.7761 14.2759V15.8246" stroke="#474442" stroke-width="1.44828" stroke-linecap="round" stroke-linejoin="round"/>
<path d="M14.3083 11.3812V18.9403M11.5228 12.1527V16.9301M8.73633 12.843V15.8255M16.9896 12.1527V16.9301M19.7761 12.843V15.8255" stroke="#474442" stroke-width="1.44828" stroke-linecap="round" stroke-linejoin="round"/>
</svg>
