<svg width="164" height="40" viewBox="0 0 164 40" fill="none" xmlns="http://www.w3.org/2000/svg">
<mask id="path-1-outside-1_26_37" maskUnits="userSpaceOnUse" x="-1" y="5.48999" width="110" height="27" fill="black">
<rect fill="white" x="-1" y="5.48999" width="110" height="27"/>
<path d="M21.936 28.922L21.552 30.49H12.784L12.944 28.922L14 28.602C14.32 28.5167 14.5333 28.3353 14.64 28.058C14.7467 27.7807 14.7787 27.482 14.736 27.162L14.288 23.898H8.272L6.576 27.226C6.42667 27.5247 6.384 27.7913 6.448 28.026C6.53333 28.2607 6.71467 28.4313 6.992 28.538L7.952 28.922L7.568 30.49H0.912L1.072 28.922L1.936 28.538C2.66133 28.218 3.22667 27.674 3.632 26.906L11.12 12.698C11.4827 12.0153 11.3653 11.5567 10.768 11.322L9.744 10.938L10.128 9.36999H17.36C17.552 11.5247 17.8613 13.8713 18.288 16.41L20.048 27.098C20.112 27.482 20.2293 27.802 20.4 28.058C20.5707 28.314 20.7947 28.4953 21.072 28.602L21.936 28.922ZM13.936 21.594L13.424 17.882C13.1893 16.218 13.1147 14.554 13.2 12.89C12.8373 14.426 12.2827 15.9513 11.536 17.466L9.424 21.594H13.936ZM24.321 16.314L31.649 15.514C31.649 16.666 31.4783 17.882 31.137 19.162L29.569 24.954C29.377 25.7007 29.345 26.298 29.473 26.746C29.601 27.194 29.857 27.418 30.241 27.418C30.4757 27.418 30.7957 27.2687 31.201 26.97C31.6063 26.65 32.065 25.9887 32.577 24.986C33.1103 23.962 33.6437 22.6287 34.177 20.986C34.7317 19.3433 35.1797 17.6793 35.521 15.994L40.737 15.802L38.433 26.81C38.2837 27.578 38.5183 28.0687 39.137 28.282L40.065 28.602L39.873 30.01L33.185 30.682C33.3983 29.2313 33.9423 27.2687 34.817 24.794C33.8357 27.034 32.801 28.602 31.713 29.498C30.625 30.3727 29.473 30.81 28.257 30.81C27.5103 30.81 26.8383 30.6607 26.241 30.362C25.665 30.042 25.2063 29.6153 24.865 29.082C24.5237 28.5273 24.3103 27.8873 24.225 27.162C24.161 26.4153 24.2357 25.626 24.449 24.794L25.825 19.61C25.9103 19.2687 25.921 18.9593 25.857 18.682C25.793 18.4047 25.537 18.1913 25.089 18.042L24.129 17.722L24.321 16.314ZM54.9355 15.482C55.5328 15.482 56.0875 15.61 56.5995 15.866L55.2875 20.698H53.4635C53.2075 20.3353 52.9195 20.154 52.5995 20.154C51.8955 20.154 51.1275 21.0713 50.2955 22.906C49.4635 24.7193 48.6635 27.2153 47.8955 30.394L42.6795 30.586L44.9835 19.674C45.0475 19.3327 45.0475 19.0127 44.9835 18.714C44.9408 18.4153 44.7062 18.1913 44.2795 18.042L43.3195 17.722L43.5115 16.314L50.8715 15.642C50.0822 17.9673 49.2928 20.09 48.5035 22.01C50.7008 17.658 52.8448 15.482 54.9355 15.482ZM70.4188 18.97C70.4188 19.7167 70.1734 20.3993 69.6828 21.018C69.2134 21.6153 68.5521 22.1273 67.6988 22.554C66.8668 22.9593 65.8854 23.29 64.7548 23.546C63.6454 23.7807 62.4721 23.93 61.2348 23.994C61.0214 26.362 61.8428 27.546 63.6988 27.546C64.8508 27.546 66.3228 27.0447 68.1148 26.042L69.0108 27.354C67.9654 28.4633 66.8241 29.3167 65.5868 29.914C64.3708 30.5113 63.1121 30.81 61.8108 30.81C60.0188 30.81 58.5681 30.2873 57.4588 29.242C56.3708 28.1967 55.8268 26.7993 55.8268 25.05C55.8268 23.8553 56.0934 22.682 56.6268 21.53C57.1814 20.378 57.9281 19.354 58.8668 18.458C59.8268 17.562 60.9041 16.858 62.0988 16.346C63.3148 15.834 64.5521 15.578 65.8108 15.578C67.1974 15.578 68.3068 15.8873 69.1388 16.506C69.9921 17.1247 70.4188 17.946 70.4188 18.97ZM64.9148 17.434C64.3388 17.434 63.7094 17.9247 63.0268 18.906C62.3654 19.866 61.8748 20.9753 61.5548 22.234C62.4081 22.0847 63.1441 21.85 63.7628 21.53C64.3814 21.21 64.8508 20.8153 65.1708 20.346C65.5121 19.8767 65.6828 19.3113 65.6828 18.65C65.6828 17.8393 65.4268 17.434 64.9148 17.434ZM73.6078 8.21799L80.5518 7.54599C80.5518 9.29532 80.3918 10.9593 80.0718 12.538L77.1598 26.81C77.0744 27.2153 77.0851 27.5353 77.1918 27.77C77.2984 28.0047 77.5118 28.1753 77.8318 28.282L78.7598 28.602L78.5677 30.01L71.7838 30.714C71.6131 29.5833 71.6878 28.2287 72.0078 26.65L75.0798 11.642C75.2718 10.7247 75.0371 10.1593 74.3758 9.94599L73.4158 9.62599L73.6078 8.21799ZM87.6115 8.60199C88.2728 8.60199 88.8168 8.80466 89.2435 9.20999C89.6915 9.59399 89.9155 10.074 89.9155 10.65C89.9155 11.0127 89.8088 11.418 89.5955 11.866C89.4035 12.314 89.0408 12.698 88.5075 13.018C87.9955 13.3167 87.4088 13.466 86.7475 13.466C86.0862 13.466 85.5422 13.274 85.1155 12.89C84.6888 12.4847 84.4755 11.9727 84.4755 11.354C84.4755 10.9913 84.5715 10.5967 84.7635 10.17C84.9768 9.74332 85.3395 9.38066 85.8515 9.08199C86.3848 8.76199 86.9715 8.60199 87.6115 8.60199ZM81.9475 16.314L88.7955 15.642C88.9662 17.05 88.9022 18.4367 88.6035 19.802L87.0035 26.81C86.8328 27.578 87.0568 28.0687 87.6755 28.282L88.6035 28.602L88.4115 30.01L81.6275 30.714C81.4355 29.498 81.5102 28.1433 81.8515 26.65L83.4195 19.674C83.5048 19.3113 83.5155 18.9913 83.4515 18.714C83.3875 18.4153 83.1422 18.1913 82.7155 18.042L81.7555 17.722L81.9475 16.314ZM106.643 16.346L104.435 26.81C104.286 27.578 104.52 28.0687 105.139 28.282L106.067 28.602L105.875 30.01L99.155 30.682C99.219 30.17 99.3363 29.594 99.507 28.954C99.699 28.2927 100.104 27.1833 100.723 25.626C99.763 27.4607 98.8137 28.7833 97.875 29.594C96.9577 30.4047 95.8803 30.81 94.643 30.81C93.2777 30.81 92.211 30.3727 91.443 29.498C90.6963 28.602 90.323 27.3647 90.323 25.786C90.323 24.4847 90.5897 23.2153 91.123 21.978C91.6563 20.7193 92.3923 19.61 93.331 18.65C94.291 17.69 95.4003 16.9433 96.659 16.41C97.939 15.8553 99.2617 15.578 100.627 15.578C102.206 15.578 104.211 15.834 106.643 16.346ZM96.435 27.706C96.9043 27.706 97.4163 27.3113 97.971 26.522C98.547 25.7113 99.123 24.5487 99.699 23.034C100.275 21.5193 100.766 19.7593 101.171 17.754C100.83 17.5407 100.51 17.434 100.211 17.434C99.891 17.434 99.507 17.626 99.059 18.01C98.611 18.3727 98.1097 19.0127 97.555 19.93C97.0217 20.8473 96.5737 21.8927 96.211 23.066C95.8697 24.2393 95.699 25.2847 95.699 26.202C95.699 27.2047 95.9443 27.706 96.435 27.706Z"/>
</mask>
<path d="M21.936 28.922L21.552 30.49H12.784L12.944 28.922L14 28.602C14.32 28.5167 14.5333 28.3353 14.64 28.058C14.7467 27.7807 14.7787 27.482 14.736 27.162L14.288 23.898H8.272L6.576 27.226C6.42667 27.5247 6.384 27.7913 6.448 28.026C6.53333 28.2607 6.71467 28.4313 6.992 28.538L7.952 28.922L7.568 30.49H0.912L1.072 28.922L1.936 28.538C2.66133 28.218 3.22667 27.674 3.632 26.906L11.12 12.698C11.4827 12.0153 11.3653 11.5567 10.768 11.322L9.744 10.938L10.128 9.36999H17.36C17.552 11.5247 17.8613 13.8713 18.288 16.41L20.048 27.098C20.112 27.482 20.2293 27.802 20.4 28.058C20.5707 28.314 20.7947 28.4953 21.072 28.602L21.936 28.922ZM13.936 21.594L13.424 17.882C13.1893 16.218 13.1147 14.554 13.2 12.89C12.8373 14.426 12.2827 15.9513 11.536 17.466L9.424 21.594H13.936ZM24.321 16.314L31.649 15.514C31.649 16.666 31.4783 17.882 31.137 19.162L29.569 24.954C29.377 25.7007 29.345 26.298 29.473 26.746C29.601 27.194 29.857 27.418 30.241 27.418C30.4757 27.418 30.7957 27.2687 31.201 26.97C31.6063 26.65 32.065 25.9887 32.577 24.986C33.1103 23.962 33.6437 22.6287 34.177 20.986C34.7317 19.3433 35.1797 17.6793 35.521 15.994L40.737 15.802L38.433 26.81C38.2837 27.578 38.5183 28.0687 39.137 28.282L40.065 28.602L39.873 30.01L33.185 30.682C33.3983 29.2313 33.9423 27.2687 34.817 24.794C33.8357 27.034 32.801 28.602 31.713 29.498C30.625 30.3727 29.473 30.81 28.257 30.81C27.5103 30.81 26.8383 30.6607 26.241 30.362C25.665 30.042 25.2063 29.6153 24.865 29.082C24.5237 28.5273 24.3103 27.8873 24.225 27.162C24.161 26.4153 24.2357 25.626 24.449 24.794L25.825 19.61C25.9103 19.2687 25.921 18.9593 25.857 18.682C25.793 18.4047 25.537 18.1913 25.089 18.042L24.129 17.722L24.321 16.314ZM54.9355 15.482C55.5328 15.482 56.0875 15.61 56.5995 15.866L55.2875 20.698H53.4635C53.2075 20.3353 52.9195 20.154 52.5995 20.154C51.8955 20.154 51.1275 21.0713 50.2955 22.906C49.4635 24.7193 48.6635 27.2153 47.8955 30.394L42.6795 30.586L44.9835 19.674C45.0475 19.3327 45.0475 19.0127 44.9835 18.714C44.9408 18.4153 44.7062 18.1913 44.2795 18.042L43.3195 17.722L43.5115 16.314L50.8715 15.642C50.0822 17.9673 49.2928 20.09 48.5035 22.01C50.7008 17.658 52.8448 15.482 54.9355 15.482ZM70.4188 18.97C70.4188 19.7167 70.1734 20.3993 69.6828 21.018C69.2134 21.6153 68.5521 22.1273 67.6988 22.554C66.8668 22.9593 65.8854 23.29 64.7548 23.546C63.6454 23.7807 62.4721 23.93 61.2348 23.994C61.0214 26.362 61.8428 27.546 63.6988 27.546C64.8508 27.546 66.3228 27.0447 68.1148 26.042L69.0108 27.354C67.9654 28.4633 66.8241 29.3167 65.5868 29.914C64.3708 30.5113 63.1121 30.81 61.8108 30.81C60.0188 30.81 58.5681 30.2873 57.4588 29.242C56.3708 28.1967 55.8268 26.7993 55.8268 25.05C55.8268 23.8553 56.0934 22.682 56.6268 21.53C57.1814 20.378 57.9281 19.354 58.8668 18.458C59.8268 17.562 60.9041 16.858 62.0988 16.346C63.3148 15.834 64.5521 15.578 65.8108 15.578C67.1974 15.578 68.3068 15.8873 69.1388 16.506C69.9921 17.1247 70.4188 17.946 70.4188 18.97ZM64.9148 17.434C64.3388 17.434 63.7094 17.9247 63.0268 18.906C62.3654 19.866 61.8748 20.9753 61.5548 22.234C62.4081 22.0847 63.1441 21.85 63.7628 21.53C64.3814 21.21 64.8508 20.8153 65.1708 20.346C65.5121 19.8767 65.6828 19.3113 65.6828 18.65C65.6828 17.8393 65.4268 17.434 64.9148 17.434ZM73.6078 8.21799L80.5518 7.54599C80.5518 9.29532 80.3918 10.9593 80.0718 12.538L77.1598 26.81C77.0744 27.2153 77.0851 27.5353 77.1918 27.77C77.2984 28.0047 77.5118 28.1753 77.8318 28.282L78.7598 28.602L78.5677 30.01L71.7838 30.714C71.6131 29.5833 71.6878 28.2287 72.0078 26.65L75.0798 11.642C75.2718 10.7247 75.0371 10.1593 74.3758 9.94599L73.4158 9.62599L73.6078 8.21799ZM87.6115 8.60199C88.2728 8.60199 88.8168 8.80466 89.2435 9.20999C89.6915 9.59399 89.9155 10.074 89.9155 10.65C89.9155 11.0127 89.8088 11.418 89.5955 11.866C89.4035 12.314 89.0408 12.698 88.5075 13.018C87.9955 13.3167 87.4088 13.466 86.7475 13.466C86.0862 13.466 85.5422 13.274 85.1155 12.89C84.6888 12.4847 84.4755 11.9727 84.4755 11.354C84.4755 10.9913 84.5715 10.5967 84.7635 10.17C84.9768 9.74332 85.3395 9.38066 85.8515 9.08199C86.3848 8.76199 86.9715 8.60199 87.6115 8.60199ZM81.9475 16.314L88.7955 15.642C88.9662 17.05 88.9022 18.4367 88.6035 19.802L87.0035 26.81C86.8328 27.578 87.0568 28.0687 87.6755 28.282L88.6035 28.602L88.4115 30.01L81.6275 30.714C81.4355 29.498 81.5102 28.1433 81.8515 26.65L83.4195 19.674C83.5048 19.3113 83.5155 18.9913 83.4515 18.714C83.3875 18.4153 83.1422 18.1913 82.7155 18.042L81.7555 17.722L81.9475 16.314ZM106.643 16.346L104.435 26.81C104.286 27.578 104.52 28.0687 105.139 28.282L106.067 28.602L105.875 30.01L99.155 30.682C99.219 30.17 99.3363 29.594 99.507 28.954C99.699 28.2927 100.104 27.1833 100.723 25.626C99.763 27.4607 98.8137 28.7833 97.875 29.594C96.9577 30.4047 95.8803 30.81 94.643 30.81C93.2777 30.81 92.211 30.3727 91.443 29.498C90.6963 28.602 90.323 27.3647 90.323 25.786C90.323 24.4847 90.5897 23.2153 91.123 21.978C91.6563 20.7193 92.3923 19.61 93.331 18.65C94.291 17.69 95.4003 16.9433 96.659 16.41C97.939 15.8553 99.2617 15.578 100.627 15.578C102.206 15.578 104.211 15.834 106.643 16.346ZM96.435 27.706C96.9043 27.706 97.4163 27.3113 97.971 26.522C98.547 25.7113 99.123 24.5487 99.699 23.034C100.275 21.5193 100.766 19.7593 101.171 17.754C100.83 17.5407 100.51 17.434 100.211 17.434C99.891 17.434 99.507 17.626 99.059 18.01C98.611 18.3727 98.1097 19.0127 97.555 19.93C97.0217 20.8473 96.5737 21.8927 96.211 23.066C95.8697 24.2393 95.699 25.2847 95.699 26.202C95.699 27.2047 95.9443 27.706 96.435 27.706Z" fill="#E94F2D"/>
<path d="M21.936 28.922L23.1501 29.2193L23.4152 28.1369L22.3701 27.7498L21.936 28.922ZM21.552 30.49V31.74H22.5328L22.7661 30.7873L21.552 30.49ZM12.784 30.49L11.5405 30.3631L11.4 31.74H12.784V30.49ZM12.944 28.922L12.5815 27.7257L11.7849 27.9671L11.7005 28.7951L12.944 28.922ZM14 28.602L13.6779 27.3942L13.6576 27.3996L13.6375 27.4057L14 28.602ZM14.64 28.058L13.4733 27.6093L13.4733 27.6093L14.64 28.058ZM14.736 27.162L15.975 26.9968L15.9744 26.992L14.736 27.162ZM14.288 23.898L15.5264 23.728L15.3782 22.648H14.288V23.898ZM8.272 23.898V22.648H7.50606L7.15828 23.3304L8.272 23.898ZM6.576 27.226L5.46225 26.6584L5.45797 26.667L6.576 27.226ZM6.448 28.026L5.24205 28.3549L5.25562 28.4047L5.27326 28.4532L6.448 28.026ZM6.992 28.538L7.45624 27.3774L7.4485 27.3743L7.44072 27.3713L6.992 28.538ZM7.952 28.922L9.16612 29.2193L9.42441 28.1647L8.41624 27.7614L7.952 28.922ZM7.568 30.49V31.74H8.54882L8.78212 30.7873L7.568 30.49ZM0.912 30.49L-0.331543 30.3631L-0.472042 31.74H0.912V30.49ZM1.072 28.922L0.564327 27.7797L-0.0979694 28.0741L-0.171543 28.7951L1.072 28.922ZM1.936 28.538L1.43145 27.3943L1.42833 27.3957L1.936 28.538ZM3.632 26.906L4.73748 27.4894L4.73782 27.4888L3.632 26.906ZM11.12 12.698L10.0161 12.1115L10.0142 12.1152L11.12 12.698ZM10.768 11.322L11.2251 10.1586L11.216 10.155L11.2069 10.1516L10.768 11.322ZM9.744 10.938L8.52988 10.6407L8.26587 11.7187L9.3051 12.1084L9.744 10.938ZM10.128 9.36999V8.11999H9.14718L8.91388 9.07265L10.128 9.36999ZM17.36 9.36999L18.6051 9.25904L18.5036 8.11999H17.36V9.36999ZM18.288 16.41L19.5214 16.2069L19.5207 16.2028L18.288 16.41ZM20.048 27.098L18.8146 27.3011L18.815 27.3035L20.048 27.098ZM20.4 28.058L21.4401 27.3646L21.4401 27.3646L20.4 28.058ZM21.072 28.602L20.6233 29.7687L20.6306 29.7715L20.6379 29.7742L21.072 28.602ZM13.936 21.594V22.844H15.3702L15.1743 21.4232L13.936 21.594ZM13.424 17.882L14.6623 17.7112L14.6618 17.7074L13.424 17.882ZM13.2 12.89L14.4484 12.954L11.9835 12.6027L13.2 12.89ZM11.536 17.466L12.6488 18.0353L12.6531 18.027L12.6572 18.0187L11.536 17.466ZM9.424 21.594L8.31119 21.0246L7.38036 22.844H9.424V21.594ZM20.7219 28.6247L20.3379 30.1927L22.7661 30.7873L23.1501 29.2193L20.7219 28.6247ZM21.552 29.24H12.784V31.74H21.552V29.24ZM14.0275 30.6169L14.1875 29.0489L11.7005 28.7951L11.5405 30.3631L14.0275 30.6169ZM13.3065 30.1183L14.3625 29.7983L13.6375 27.4057L12.5815 27.7257L13.3065 30.1183ZM14.3221 29.8098C14.9777 29.635 15.5382 29.2046 15.8067 28.5067L13.4733 27.6093C13.4903 27.5652 13.528 27.5026 13.5904 27.4496C13.6489 27.3999 13.691 27.3907 13.6779 27.3942L14.3221 29.8098ZM15.8067 28.5067C15.9949 28.0174 16.0429 27.5059 15.975 26.9968L13.497 27.3272C13.5144 27.4581 13.4985 27.5439 13.4733 27.6093L15.8067 28.5067ZM15.9744 26.992L15.5264 23.728L13.0496 24.068L13.4976 27.332L15.9744 26.992ZM14.288 22.648H8.272V25.148H14.288V22.648ZM7.15828 23.3304L5.46228 26.6584L7.68972 27.7936L9.38572 24.4656L7.15828 23.3304ZM5.45797 26.667C5.22266 27.1376 5.0712 27.7285 5.24205 28.3549L7.65396 27.6971C7.66327 27.7312 7.66769 27.7632 7.66887 27.7908C7.67003 27.8181 7.66789 27.8376 7.6663 27.8475C7.66342 27.8655 7.66341 27.8463 7.69403 27.785L5.45797 26.667ZM5.27326 28.4532C5.50585 29.0928 5.99876 29.4952 6.54328 29.7047L7.44072 27.3713C7.42475 27.3652 7.45684 27.3747 7.50471 27.4197C7.55677 27.4687 7.59881 27.533 7.62274 27.5988L5.27326 28.4532ZM6.52776 29.6986L7.48776 30.0826L8.41624 27.7614L7.45624 27.3774L6.52776 29.6986ZM6.73788 28.6247L6.35388 30.1927L8.78212 30.7873L9.16612 29.2193L6.73788 28.6247ZM7.568 29.24H0.912V31.74H7.568V29.24ZM2.15554 30.6169L2.31554 29.0489L-0.171543 28.7951L-0.331543 30.3631L2.15554 30.6169ZM1.57967 30.0643L2.44367 29.6803L1.42833 27.3957L0.564327 27.7797L1.57967 30.0643ZM2.44055 29.6816C3.44858 29.2369 4.21402 28.4813 4.73748 27.4894L2.52652 26.3225C2.23932 26.8667 1.87409 27.1991 1.43145 27.3943L2.44055 29.6816ZM4.73782 27.4888L12.2258 13.2808L10.0142 12.1152L2.52618 26.3232L4.73782 27.4888ZM12.2239 13.2844C12.4643 12.8319 12.687 12.2044 12.515 11.5322C12.3237 10.7845 11.7533 10.3661 11.2251 10.1586L10.3109 12.4854C10.3488 12.5003 10.314 12.4938 10.2556 12.4372C10.1883 12.3719 10.1238 12.2723 10.093 12.1518C10.0645 12.0405 10.0792 11.9685 10.0799 11.9653C10.0803 11.9636 10.0779 11.9751 10.0678 12.0011C10.0578 12.027 10.0416 12.0636 10.0161 12.1115L12.2239 13.2844ZM11.2069 10.1516L10.1829 9.76758L9.3051 12.1084L10.3291 12.4924L11.2069 10.1516ZM10.9581 11.2353L11.3421 9.66733L8.91388 9.07265L8.52988 10.6407L10.9581 11.2353ZM10.128 10.62H17.36V8.11999H10.128V10.62ZM16.1149 9.48094C16.3103 11.6732 16.6242 14.0524 17.0553 16.6172L19.5207 16.2028C19.0984 13.6903 18.7937 11.3761 18.6051 9.25904L16.1149 9.48094ZM17.0546 16.6131L18.8146 27.3011L21.2814 26.8949L19.5214 16.2069L17.0546 16.6131ZM18.815 27.3035C18.9006 27.8172 19.0688 28.3147 19.3599 28.7514L21.4401 27.3646C21.3899 27.2893 21.3234 27.1468 21.281 26.8925L18.815 27.3035ZM19.3599 28.7514C19.6686 29.2144 20.0957 29.5657 20.6233 29.7687L21.5207 27.4353C21.4937 27.4249 21.4727 27.4136 21.4401 27.3646L19.3599 28.7514ZM20.6379 29.7742L21.5019 30.0942L22.3701 27.7498L21.5061 27.4298L20.6379 29.7742ZM15.1743 21.4232L14.6623 17.7112L12.1857 18.0528L12.6977 21.7648L15.1743 21.4232ZM14.6618 17.7074C14.4381 16.1218 14.3671 14.5376 14.4484 12.954L11.9516 12.826C11.8622 14.5703 11.9405 16.3142 12.1862 18.0565L14.6618 17.7074ZM11.9835 12.6027C11.6439 14.0408 11.1227 15.4774 10.4148 16.9133L12.6572 18.0187C13.4427 16.4253 14.0308 14.8112 14.4166 13.1772L11.9835 12.6027ZM10.4232 16.8966L8.31119 21.0246L10.5368 22.1633L12.6488 18.0353L10.4232 16.8966ZM9.424 22.844H13.936V20.344H9.424V22.844ZM24.321 16.314L24.1853 15.0714L23.2144 15.1774L23.0825 16.1451L24.321 16.314ZM31.649 15.514H32.899V14.1201L31.5133 14.2714L31.649 15.514ZM31.137 19.162L32.3436 19.4886L32.3448 19.4841L31.137 19.162ZM29.569 24.954L28.3624 24.6274L28.3604 24.635L28.3584 24.6427L29.569 24.954ZM29.473 26.746L30.6749 26.4026L30.6749 26.4026L29.473 26.746ZM31.201 26.97L31.9425 27.9763L31.9592 27.964L31.9756 27.9511L31.201 26.97ZM32.577 24.986L31.4683 24.4086L31.4637 24.4175L32.577 24.986ZM34.177 20.986L32.9927 20.5861L32.9904 20.593L32.9881 20.6L34.177 20.986ZM35.521 15.994L35.475 14.7448L34.4913 14.781L34.2959 15.7459L35.521 15.994ZM40.737 15.802L41.9605 16.0581L42.2878 14.4941L40.691 14.5528L40.737 15.802ZM38.433 26.81L37.2095 26.5539L37.2077 26.5626L37.206 26.5714L38.433 26.81ZM39.137 28.282L39.5445 27.1003L39.5445 27.1003L39.137 28.282ZM40.065 28.602L41.3035 28.7709L41.4421 27.7546L40.4725 27.4203L40.065 28.602ZM39.873 30.01L39.998 31.2537L40.9784 31.1552L41.1115 30.1789L39.873 30.01ZM33.185 30.682L31.9483 30.5001L31.7151 32.086L33.31 31.9257L33.185 30.682ZM34.817 24.794L35.9956 25.2105L33.6721 24.2924L34.817 24.794ZM31.713 29.498L32.4962 30.4722L32.5019 30.4676L32.5076 30.4629L31.713 29.498ZM26.241 30.362L25.6339 31.4547L25.6577 31.4679L25.682 31.48L26.241 30.362ZM24.865 29.082L23.8004 29.7371L23.8062 29.7465L23.8122 29.7558L24.865 29.082ZM24.225 27.162L22.9796 27.2687L22.9813 27.2884L22.9836 27.308L24.225 27.162ZM24.449 24.794L23.2408 24.4733L23.2382 24.4835L24.449 24.794ZM25.825 19.61L27.0332 19.9307L27.0355 19.9219L27.0377 19.9132L25.825 19.61ZM25.089 18.042L25.4843 16.8561L25.4843 16.8561L25.089 18.042ZM24.129 17.722L22.8905 17.5531L22.7504 18.5801L23.7337 18.9078L24.129 17.722ZM24.4567 17.5566L31.7847 16.7566L31.5133 14.2714L24.1853 15.0714L24.4567 17.5566ZM30.399 15.514C30.399 16.5424 30.2466 17.6496 29.9292 18.8399L32.3448 19.4841C32.71 18.1144 32.899 16.7896 32.899 15.514H30.399ZM29.9304 18.8354L28.3624 24.6274L30.7756 25.2806L32.3436 19.4886L29.9304 18.8354ZM28.3584 24.6427C28.1433 25.479 28.0543 26.3306 28.2711 27.0894L30.6749 26.4026C30.6357 26.2654 30.6107 25.9223 30.7796 25.2653L28.3584 24.6427ZM28.2711 27.0894C28.3776 27.462 28.5733 27.8717 28.9379 28.1907C29.3233 28.5279 29.7879 28.668 30.241 28.668V26.168C30.2672 26.168 30.3209 26.172 30.3899 26.1962C30.4612 26.2211 30.5283 26.2605 30.5841 26.3093C30.6927 26.4043 30.6964 26.478 30.6749 26.4026L28.2711 27.0894ZM30.241 28.668C30.9132 28.668 31.5206 28.2872 31.9425 27.9763L30.4595 25.9637C30.2978 26.0828 30.1892 26.1449 30.1284 26.1733C30.0997 26.1866 30.0937 26.1868 30.108 26.183C30.122 26.1792 30.1687 26.168 30.241 26.168V28.668ZM31.9756 27.9511C32.6104 27.4499 33.1707 26.5719 33.6903 25.5545L31.4637 24.4175C30.9593 25.4054 30.6023 25.8501 30.4264 25.9889L31.9756 27.9511ZM33.6856 25.5634C34.2625 24.4558 34.8206 23.0516 35.3659 21.372L32.9881 20.6C32.4668 22.2057 31.9582 23.4681 31.4684 24.4086L33.6856 25.5634ZM35.3613 21.3859C35.9326 19.6939 36.3943 17.9793 36.7461 16.2421L34.2959 15.7459C33.965 17.3794 33.5307 18.9927 32.9927 20.5861L35.3613 21.3859ZM35.567 17.2431L40.783 17.0511L40.691 14.5528L35.475 14.7448L35.567 17.2431ZM39.5135 15.5459L37.2095 26.5539L39.6565 27.0661L41.9605 16.0581L39.5135 15.5459ZM37.206 26.5714C37.1018 27.1073 37.0954 27.7206 37.3693 28.2933C37.6597 28.9005 38.1727 29.2717 38.7295 29.4637L39.5445 27.1003C39.5058 27.0869 39.5129 27.083 39.5405 27.1058C39.5542 27.1171 39.5704 27.1329 39.5863 27.1533C39.6023 27.1737 39.6152 27.1948 39.6247 27.2147C39.6442 27.2555 39.6418 27.2739 39.6401 27.2494C39.6383 27.2225 39.6386 27.1585 39.66 27.0486L37.206 26.5714ZM38.7295 29.4637L39.6575 29.7837L40.4725 27.4203L39.5445 27.1003L38.7295 29.4637ZM38.8265 28.4331L38.6345 29.8411L41.1115 30.1789L41.3035 28.7709L38.8265 28.4331ZM39.748 28.7663L33.06 29.4383L33.31 31.9257L39.998 31.2537L39.748 28.7663ZM34.4217 30.8639C34.6175 29.5322 35.1303 27.6586 35.9956 25.2105L33.6385 24.3774C32.7544 26.8787 32.1791 28.9304 31.9483 30.5001L34.4217 30.8639ZM33.6721 24.2924C32.7195 26.4666 31.7815 27.8223 30.9184 28.5331L32.5076 30.4629C33.8205 29.3817 34.9518 27.6013 35.9619 25.2956L33.6721 24.2924ZM30.9298 28.5238C30.0293 29.2477 29.1468 29.56 28.257 29.56V32.06C29.7992 32.06 31.2207 31.4976 32.4962 30.4722L30.9298 28.5238ZM28.257 29.56C27.6812 29.56 27.2042 29.446 26.8 29.244L25.682 31.48C26.4725 31.8753 27.3394 32.06 28.257 32.06V29.56ZM26.8481 29.2693C26.4454 29.0456 26.143 28.7599 25.9178 28.4082L23.8122 29.7558C24.2697 30.4707 24.8846 31.0384 25.6339 31.4547L26.8481 29.2693ZM25.9296 28.4269C25.6945 28.0448 25.5331 27.5828 25.4664 27.0159L22.9836 27.308C23.0875 28.1919 23.3528 29.0098 23.8004 29.7371L25.9296 28.4269ZM25.4704 27.0552C25.42 26.4674 25.4764 25.8199 25.6598 25.1045L23.2382 24.4835C22.995 25.4321 22.902 26.3632 22.9796 27.2687L25.4704 27.0552ZM25.6572 25.1147L27.0332 19.9307L24.6168 19.2893L23.2408 24.4733L25.6572 25.1147ZM27.0377 19.9132C27.1598 19.4247 27.1927 18.9108 27.075 18.4009L24.639 18.9631C24.6493 19.0078 24.6609 19.1127 24.6123 19.3068L27.0377 19.9132ZM27.075 18.4009C26.8612 17.4745 26.065 17.0497 25.4843 16.8561L24.6937 19.2278C24.8267 19.2722 24.8473 19.2997 24.8168 19.2743C24.7981 19.2587 24.7626 19.225 24.726 19.1688C24.6882 19.1109 24.657 19.0408 24.639 18.9631L27.075 18.4009ZM25.4843 16.8561L24.5243 16.5361L23.7337 18.9078L24.6937 19.2278L25.4843 16.8561ZM25.3675 17.8909L25.5595 16.4829L23.0825 16.1451L22.8905 17.5531L25.3675 17.8909ZM56.5995 15.866L57.8058 16.1935L58.074 15.2057L57.1585 14.748L56.5995 15.866ZM55.2875 20.698V21.948H56.2434L56.4938 21.0255L55.2875 20.698ZM53.4635 20.698L52.4423 21.4188L52.8158 21.948H53.4635V20.698ZM50.2955 22.906L51.4316 23.4273L51.4339 23.4222L50.2955 22.906ZM47.8955 30.394L47.9415 31.6431L48.8881 31.6083L49.1105 30.6876L47.8955 30.394ZM42.6795 30.586L41.4565 30.3278L41.1258 31.894L42.7255 31.8351L42.6795 30.586ZM44.9835 19.674L46.2065 19.9322L46.2095 19.9183L46.2121 19.9044L44.9835 19.674ZM44.9835 18.714L43.7461 18.8908L43.7522 18.9336L43.7612 18.9759L44.9835 18.714ZM44.2795 18.042L44.6924 16.8622L44.6836 16.8591L44.6748 16.8561L44.2795 18.042ZM43.3195 17.722L42.081 17.5531L41.9409 18.5801L42.9242 18.9078L43.3195 17.722ZM43.5115 16.314L43.3978 15.0692L42.4073 15.1596L42.273 16.1451L43.5115 16.314ZM50.8715 15.642L52.0552 16.0438L52.6735 14.2223L50.7578 14.3972L50.8715 15.642ZM48.5035 22.01L47.3474 21.5347L49.6193 22.5734L48.5035 22.01ZM54.9355 16.732C55.3475 16.732 55.7097 16.8186 56.0405 16.984L57.1585 14.748C56.4653 14.4014 55.7182 14.232 54.9355 14.232V16.732ZM55.3932 15.5384L54.0812 20.3704L56.4938 21.0255L57.8058 16.1935L55.3932 15.5384ZM55.2875 19.448H53.4635V21.948H55.2875V19.448ZM54.4847 19.9771C54.0925 19.4215 53.4701 18.904 52.5995 18.904V21.404C52.5596 21.404 52.5172 21.3981 52.4762 21.3858C52.4358 21.3738 52.4066 21.3586 52.3895 21.3478C52.3586 21.3283 52.3818 21.3331 52.4423 21.4188L54.4847 19.9771ZM52.5995 18.904C51.6851 18.904 50.9984 19.4885 50.5371 20.0396C50.0476 20.6241 49.5926 21.4293 49.1571 22.3897L51.4339 23.4222C51.8304 22.548 52.1754 21.9772 52.4539 21.6444C52.7606 21.2781 52.8099 21.404 52.5995 21.404V18.904ZM49.1594 22.3847C48.2794 24.3026 47.457 26.8863 46.6805 30.1004L49.1105 30.6876C49.87 27.5444 50.6476 25.1361 51.4316 23.4273L49.1594 22.3847ZM47.8495 29.1448L42.6335 29.3368L42.7255 31.8351L47.9415 31.6431L47.8495 29.1448ZM43.9025 30.8442L46.2065 19.9322L43.7605 19.4158L41.4565 30.3278L43.9025 30.8442ZM46.2121 19.9044C46.3025 19.4223 46.3089 18.9335 46.2058 18.4521L43.7612 18.9759C43.7861 19.0918 43.7925 19.243 43.7549 19.4436L46.2121 19.9044ZM46.2209 18.5372C46.0824 17.5672 45.3161 17.0804 44.6924 16.8622L43.8666 19.2218C43.9737 19.2593 43.964 19.2754 43.9124 19.2262C43.8835 19.1986 43.8452 19.1537 43.8113 19.0899C43.7769 19.025 43.7554 18.9563 43.7461 18.8908L46.2209 18.5372ZM44.6748 16.8561L43.7148 16.5361L42.9242 18.9078L43.8842 19.2278L44.6748 16.8561ZM44.558 17.8909L44.75 16.4829L42.273 16.1451L42.081 17.5531L44.558 17.8909ZM43.6252 17.5588L50.9852 16.8868L50.7578 14.3972L43.3978 15.0692L43.6252 17.5588ZM49.6878 15.2402C48.9054 17.5451 48.1252 19.6428 47.3474 21.5347L49.6596 22.4853C50.4605 20.5372 51.2589 18.3896 52.0552 16.0438L49.6878 15.2402ZM49.6193 22.5734C50.69 20.4528 51.7065 18.9488 52.6499 17.9913C53.5954 17.0317 54.3529 16.732 54.9355 16.732V14.232C53.4274 14.232 52.0676 15.0203 50.8691 16.2367C49.6685 17.4552 48.5143 19.2152 47.3877 21.4466L49.6193 22.5734ZM69.6828 21.018L68.7034 20.2412L68.6999 20.2457L69.6828 21.018ZM67.6988 22.554L68.2462 23.6778L68.2578 23.672L67.6988 22.554ZM64.7548 23.546L65.0134 24.7689L65.0221 24.7671L65.0308 24.7651L64.7548 23.546ZM61.2348 23.994L61.1702 22.7457L60.0871 22.8017L59.9898 23.8818L61.2348 23.994ZM68.1148 26.042L69.147 25.337L68.5022 24.3928L67.5044 24.9511L68.1148 26.042ZM69.0108 27.354L69.9205 28.2112L70.6101 27.4794L70.043 26.649L69.0108 27.354ZM65.5868 29.914L65.0433 28.7883L65.0356 28.792L65.5868 29.914ZM57.4588 29.242L56.5927 30.1434L56.6015 30.1517L57.4588 29.242ZM56.6268 21.53L55.5005 20.9877L55.4964 20.9962L55.4924 21.0048L56.6268 21.53ZM58.8668 18.458L58.0138 17.5441L58.0037 17.5538L58.8668 18.458ZM62.0988 16.346L61.6137 15.1939L61.6064 15.1971L62.0988 16.346ZM69.1388 16.506L68.3929 17.5091L68.3989 17.5136L68.405 17.518L69.1388 16.506ZM63.0268 18.906L62.0006 18.1922L61.9974 18.1969L63.0268 18.906ZM61.5548 22.234L60.3433 21.926L59.8673 23.7983L61.7702 23.4653L61.5548 22.234ZM63.7628 21.53L64.337 22.6403L64.337 22.6403L63.7628 21.53ZM65.1708 20.346L64.1598 19.6108L64.1487 19.6261L64.138 19.6418L65.1708 20.346ZM69.1688 18.97C69.1688 19.4177 69.0296 19.8299 68.7034 20.2412L70.6621 21.7947C71.3172 20.9688 71.6688 20.0156 71.6688 18.97H69.1688ZM68.6999 20.2457C68.3699 20.6657 67.869 21.0713 67.1397 21.436L68.2578 23.672C69.2351 23.1833 70.057 22.5649 70.6656 21.7903L68.6999 20.2457ZM67.1513 21.4303C66.4243 21.7844 65.538 22.087 64.4787 22.3268L65.0308 24.7651C66.2328 24.493 67.3092 24.1342 68.2462 23.6777L67.1513 21.4303ZM64.4961 22.3231C63.4562 22.543 62.3482 22.6847 61.1702 22.7457L61.2993 25.2423C62.596 25.1753 63.8346 25.0183 65.0134 24.7689L64.4961 22.3231ZM59.9898 23.8818C59.8727 25.182 60.0073 26.4243 60.6637 27.3705C61.374 28.3944 62.4924 28.796 63.6988 28.796V26.296C63.0491 26.296 62.8289 26.1056 62.7178 25.9455C62.5529 25.7077 62.3835 25.174 62.4797 24.1061L59.9898 23.8818ZM63.6988 28.796C65.1727 28.796 66.872 28.1697 68.7251 27.1328L67.5044 24.9511C65.7735 25.9196 64.5288 26.296 63.6988 26.296V28.796ZM67.0825 26.7469L67.9785 28.0589L70.043 26.649L69.147 25.337L67.0825 26.7469ZM68.101 26.4967C67.1489 27.5071 66.1289 28.2642 65.0433 28.7883L66.1302 31.0397C67.5192 30.3691 68.7819 29.4195 69.9205 28.2112L68.101 26.4967ZM65.0356 28.792C63.9839 29.3087 62.9131 29.56 61.8108 29.56V32.06C63.3111 32.06 64.7576 31.714 66.1379 31.0359L65.0356 28.792ZM61.8108 29.56C60.2777 29.56 59.1533 29.1212 58.316 28.3323L56.6015 30.1517C57.9829 31.4534 59.7598 32.06 61.8108 32.06V29.56ZM58.3248 28.3406C57.5216 27.569 57.0768 26.5182 57.0768 25.05H54.5768C54.5768 27.0805 55.2199 28.8243 56.5927 30.1434L58.3248 28.3406ZM57.0768 25.05C57.0768 24.0479 57.2991 23.0531 57.7611 22.0551L55.4924 21.0048C54.8878 22.3109 54.5768 23.6627 54.5768 25.05H57.0768ZM57.753 22.0723C58.2414 21.0578 58.8983 20.1559 59.7298 19.3622L58.0037 17.5538C56.9579 18.552 56.1214 19.6982 55.5005 20.9877L57.753 22.0723ZM59.7196 19.3718C60.5751 18.5734 61.5307 17.9494 62.5911 17.4949L61.6064 15.1971C60.2774 15.7666 59.0784 16.5506 58.0139 17.5442L59.7196 19.3718ZM62.5838 17.498C63.6538 17.0475 64.7267 16.828 65.8108 16.828V14.328C64.3775 14.328 62.9757 14.6205 61.6137 15.1939L62.5838 17.498ZM65.8108 16.828C67.0186 16.828 67.8389 17.0971 68.3929 17.5091L69.8846 15.5029C68.7746 14.6775 67.3763 14.328 65.8108 14.328V16.828ZM68.405 17.518C68.9453 17.9097 69.1688 18.3602 69.1688 18.97H71.6688C71.6688 17.5317 71.0389 16.3396 69.8725 15.494L68.405 17.518ZM64.9148 16.184C64.2584 16.184 63.6931 16.4646 63.2422 16.8162C62.7923 17.1669 62.3817 17.6444 62.0006 18.1922L64.0529 19.6198C64.3545 19.1863 64.5998 18.9277 64.7793 18.7878C64.9577 18.6487 64.9951 18.684 64.9148 18.684V16.184ZM61.9974 18.1969C61.243 19.2918 60.6956 20.5402 60.3433 21.926L62.7662 22.542C63.0539 21.4105 63.4878 20.4401 64.0561 19.6151L61.9974 18.1969ZM61.7702 23.4653C62.7195 23.2992 63.582 23.0308 64.337 22.6403L63.1885 20.4197C62.7061 20.6692 62.0967 20.8702 61.3393 21.0027L61.7702 23.4653ZM64.337 22.6403C65.0987 22.2463 65.7431 21.7254 66.2035 21.0502L64.138 19.6418C63.9584 19.9053 63.6642 20.1737 63.1885 20.4197L64.337 22.6403ZM66.1817 21.0812C66.6995 20.3691 66.9328 19.5371 66.9328 18.65H64.4328C64.4328 19.0855 64.3246 19.3842 64.1598 19.6108L66.1817 21.0812ZM66.9328 18.65C66.9328 18.1534 66.8616 17.5677 66.5476 17.0705C66.1725 16.4765 65.5646 16.184 64.9148 16.184V18.684C64.8758 18.684 64.7808 18.6754 64.6673 18.6155C64.5502 18.5537 64.4742 18.4693 64.4339 18.4055C64.3989 18.3501 64.4016 18.3281 64.4116 18.3755C64.4213 18.4217 64.4328 18.5093 64.4328 18.65H66.9328ZM73.6078 8.21799L73.4873 6.9738L72.5029 7.06907L72.3692 8.0491L73.6078 8.21799ZM80.5518 7.54599H81.8018V6.16918L80.4313 6.3018L80.5518 7.54599ZM80.0718 12.538L81.2965 12.7879L81.2968 12.7863L80.0718 12.538ZM77.1598 26.81L78.383 27.0675L78.3845 27.0599L77.1598 26.81ZM77.1918 27.77L78.3297 27.2527L78.3297 27.2527L77.1918 27.77ZM77.8318 28.282L78.2393 27.1002L78.227 27.0961L77.8318 28.282ZM78.7598 28.602L79.9983 28.7709L80.1369 27.7546L79.1672 27.4203L78.7598 28.602ZM78.5677 30.01L78.6968 31.2533L79.6736 31.1519L79.8063 30.1789L78.5677 30.01ZM71.7838 30.714L70.5478 30.9006L70.7259 32.0805L71.9128 31.9573L71.7838 30.714ZM72.0078 26.65L70.7831 26.3993L70.7827 26.4017L72.0078 26.65ZM75.0798 11.642L73.8562 11.3859L73.8551 11.3913L75.0798 11.642ZM74.3758 9.94599L73.9804 11.1319L73.992 11.1356L74.3758 9.94599ZM73.4158 9.62599L72.1772 9.4571L72.0372 10.4841L73.0205 10.8118L73.4158 9.62599ZM73.7282 9.46218L80.6722 8.79018L80.4313 6.3018L73.4873 6.9738L73.7282 9.46218ZM79.3018 7.54599C79.3018 9.219 79.1487 10.7994 78.8467 12.2897L81.2968 12.7863C81.6348 11.1193 81.8018 9.37165 81.8018 7.54599H79.3018ZM78.847 12.2881L75.935 26.5601L78.3845 27.0599L81.2965 12.7879L78.847 12.2881ZM75.9366 26.5525C75.8271 27.0726 75.788 27.7025 76.0538 28.2872L78.3297 27.2527C78.3587 27.3166 78.3542 27.3465 78.3531 27.3123C78.3519 27.2771 78.3553 27.1989 78.3829 27.0675L75.9366 26.5525ZM76.0538 28.2872C76.3451 28.9282 76.8938 29.287 77.4365 29.4678L78.227 27.0961C78.1753 27.0789 78.1807 27.0724 78.2126 27.0979C78.2292 27.1112 78.2507 27.1313 78.2729 27.1594C78.2952 27.1878 78.3146 27.2195 78.3297 27.2527L76.0538 28.2872ZM77.4243 29.4637L78.3523 29.7837L79.1672 27.4203L78.2392 27.1003L77.4243 29.4637ZM77.5212 28.4331L77.3292 29.8411L79.8063 30.1789L79.9983 28.7709L77.5212 28.4331ZM78.4387 28.7667L71.6547 29.4707L71.9128 31.9573L78.6968 31.2533L78.4387 28.7667ZM73.0197 30.5274C72.8778 29.5871 72.9309 28.3877 73.2328 26.8983L70.7827 26.4017C70.4446 28.0696 70.3483 29.5795 70.5478 30.9006L73.0197 30.5274ZM73.2324 26.9007L76.3044 11.8927L73.8551 11.3913L70.7831 26.3993L73.2324 26.9007ZM76.3032 11.8981C76.4253 11.3151 76.4549 10.6594 76.2022 10.0508C75.9246 9.3818 75.386 8.95847 74.7595 8.75635L73.992 11.1356C74.0239 11.1459 74.0069 11.146 73.9718 11.1155C73.9332 11.082 73.9063 11.0407 73.8933 11.0092C73.8826 10.9835 73.8924 10.9916 73.8943 11.0559C73.8962 11.1215 73.8892 11.2287 73.8563 11.3859L76.3032 11.8981ZM74.771 8.76014L73.811 8.44014L73.0205 10.8118L73.9805 11.1318L74.771 8.76014ZM74.6543 9.79488L74.8463 8.38688L72.3692 8.0491L72.1772 9.4571L74.6543 9.79488ZM89.2435 9.20999L88.3826 10.1162L88.4057 10.1383L88.43 10.1591L89.2435 9.20999ZM89.5955 11.866L88.4669 11.3286L88.4563 11.3509L88.4466 11.3736L89.5955 11.866ZM88.5075 13.018L89.1373 14.0977L89.144 14.0938L89.1506 14.0899L88.5075 13.018ZM85.1155 12.89L84.2546 13.7962L84.2668 13.8078L84.2793 13.8191L85.1155 12.89ZM84.7635 10.17L83.6455 9.61097L83.6341 9.63378L83.6236 9.65703L84.7635 10.17ZM85.8515 9.08199L86.4813 10.1617L86.488 10.1578L86.4946 10.1539L85.8515 9.08199ZM81.9475 16.314L81.8254 15.07L80.8424 15.1664L80.709 16.1451L81.9475 16.314ZM88.7955 15.642L90.0364 15.4916L89.8894 14.2786L88.6734 14.398L88.7955 15.642ZM88.6035 19.802L89.8222 20.0802L89.8246 20.0691L88.6035 19.802ZM87.0035 26.81L85.7848 26.5318L85.7833 26.5388L87.0035 26.81ZM87.6755 28.282L88.083 27.1003L88.083 27.1003L87.6755 28.282ZM88.6035 28.602L89.842 28.7709L89.9806 27.7546L89.011 27.4203L88.6035 28.602ZM88.4115 30.01L88.5405 31.2533L89.5173 31.1519L89.65 30.1789L88.4115 30.01ZM81.6275 30.714L80.3928 30.9089L80.5776 32.0797L81.7565 31.9573L81.6275 30.714ZM81.8515 26.65L83.0701 26.9285L83.0711 26.9241L81.8515 26.65ZM83.4195 19.674L82.2027 19.3877L82.1999 19.3999L83.4195 19.674ZM83.4515 18.714L82.2292 18.9759L82.2313 18.9855L82.2335 18.9951L83.4515 18.714ZM82.7155 18.042L83.1284 16.8622L83.1196 16.8591L83.1108 16.8561L82.7155 18.042ZM81.7555 17.722L80.517 17.5531L80.3769 18.5801L81.3602 18.9078L81.7555 17.722ZM87.6115 9.85199C87.9954 9.85199 88.2176 9.95951 88.3826 10.1162L90.1044 8.30374C89.4161 7.6498 88.5503 7.35199 87.6115 7.35199V9.85199ZM88.43 10.1591C88.6087 10.3122 88.6655 10.449 88.6655 10.65H91.1655C91.1655 9.69898 90.7743 8.87574 90.057 8.26092L88.43 10.1591ZM88.6655 10.65C88.6655 10.7714 88.6281 10.9901 88.4669 11.3286L90.7241 12.4034C90.9896 11.8459 91.1655 11.2539 91.1655 10.65H88.6655ZM88.4466 11.3736C88.3835 11.5208 88.2348 11.7239 87.8644 11.9461L89.1506 14.0899C89.8468 13.6721 90.4235 13.1072 90.7444 12.3584L88.4466 11.3736ZM87.8777 11.9383C87.5783 12.1129 87.2137 12.216 86.7475 12.216V14.716C87.6039 14.716 88.4127 14.5204 89.1373 14.0977L87.8777 11.9383ZM86.7475 12.216C86.3449 12.216 86.1141 12.1071 85.9517 11.9609L84.2793 13.8191C84.9702 14.4409 85.8275 14.716 86.7475 14.716V12.216ZM85.9764 11.9837C85.8121 11.8276 85.7255 11.6497 85.7255 11.354H83.2255C83.2255 12.2956 83.5656 13.1417 84.2546 13.7962L85.9764 11.9837ZM85.7255 11.354C85.7255 11.2116 85.7638 10.9933 85.9034 10.6829L83.6236 9.65703C83.3792 10.2 83.2255 10.7711 83.2255 11.354H85.7255ZM85.8815 10.729C85.9625 10.5671 86.1282 10.3677 86.4813 10.1617L85.2217 8.00227C84.5508 8.39361 83.9912 8.91959 83.6455 9.61097L85.8815 10.729ZM86.4946 10.1539C86.8279 9.95391 87.1912 9.85199 87.6115 9.85199V7.35199C86.7518 7.35199 85.9418 7.57007 85.2084 8.01012L86.4946 10.1539ZM82.0696 17.558L88.9176 16.886L88.6734 14.398L81.8254 15.07L82.0696 17.558ZM87.5546 15.7924C87.7086 17.0632 87.6506 18.3087 87.3824 19.5349L89.8246 20.0691C90.1537 18.5646 90.2237 17.0368 90.0364 15.4916L87.5546 15.7924ZM87.3849 19.5238L85.7849 26.5318L88.2221 27.0882L89.8221 20.0802L87.3849 19.5238ZM85.7833 26.5388C85.665 27.0712 85.6401 27.6899 85.9064 28.2731C86.1902 28.8948 86.7092 29.271 87.268 29.4637L88.083 27.1003C88.0451 27.0872 88.0555 27.0845 88.0869 27.1107C88.1026 27.1238 88.1207 27.1419 88.1384 27.165C88.1561 27.1881 88.1702 27.2121 88.1806 27.2349C88.2019 27.2814 88.1993 27.3039 88.1984 27.2811C88.1973 27.2556 88.1991 27.192 88.2237 27.0812L85.7833 26.5388ZM87.268 29.4637L88.196 29.7837L89.011 27.4203L88.083 27.1003L87.268 29.4637ZM87.365 28.4331L87.173 29.8411L89.65 30.1789L89.842 28.7709L87.365 28.4331ZM88.2825 28.7667L81.4985 29.4707L81.7565 31.9573L88.5405 31.2533L88.2825 28.7667ZM82.8622 30.519C82.7003 29.4938 82.7559 28.3031 83.0701 26.9285L80.6329 26.3715C80.2645 27.9835 80.1707 29.5022 80.3928 30.9089L82.8622 30.519ZM83.0711 26.9241L84.6391 19.9481L82.1999 19.3999L80.6319 26.3759L83.0711 26.9241ZM84.6363 19.9603C84.7525 19.4665 84.7878 18.9455 84.6695 18.4329L82.2335 18.9951C82.2432 19.0372 82.2572 19.1562 82.2027 19.3877L84.6363 19.9603ZM84.6738 18.4521C84.4794 17.5449 83.7528 17.0807 83.1284 16.8622L82.3026 19.2218C82.4107 19.2597 82.4147 19.2799 82.3767 19.2451C82.3551 19.2254 82.3238 19.1913 82.2938 19.1406C82.2633 19.0891 82.2414 19.0325 82.2292 18.9759L84.6738 18.4521ZM83.1108 16.8561L82.1508 16.5361L81.3602 18.9078L82.3202 19.2278L83.1108 16.8561ZM82.994 17.8909L83.186 16.4829L80.709 16.1451L80.517 17.5531L82.994 17.8909ZM106.643 16.346L107.866 16.6041L108.124 15.3804L106.901 15.1228L106.643 16.346ZM104.435 26.81L103.212 26.5519L103.21 26.5616L103.208 26.5714L104.435 26.81ZM105.139 28.282L105.546 27.1003L105.546 27.1003L105.139 28.282ZM106.067 28.602L107.306 28.7709L107.444 27.7546L106.474 27.4203L106.067 28.602ZM105.875 30.01L105.999 31.2538L106.98 31.1557L107.114 30.1789L105.875 30.01ZM99.155 30.682L97.9147 30.5269L97.7203 32.0817L99.2794 31.9258L99.155 30.682ZM99.507 28.954L98.3066 28.6055L98.3027 28.6187L98.2992 28.6319L99.507 28.954ZM100.723 25.626L101.885 26.0875L99.6155 25.0465L100.723 25.626ZM97.875 29.594L97.058 28.648L97.0526 28.6526L97.0473 28.6573L97.875 29.594ZM91.443 29.498L90.4827 30.2982L90.4931 30.3106L90.5037 30.3227L91.443 29.498ZM91.123 21.978L92.2709 22.4728L92.2739 22.4657L91.123 21.978ZM93.331 18.65L92.4471 17.7661L92.4372 17.7761L93.331 18.65ZM96.659 16.41L97.1467 17.561L97.156 17.5569L96.659 16.41ZM97.971 26.522L96.952 25.798L96.9483 25.8033L97.971 26.522ZM101.171 17.754L102.396 18.0016L102.568 17.1529L101.833 16.694L101.171 17.754ZM99.059 18.01L99.8455 18.9815L99.8592 18.9705L99.8725 18.9591L99.059 18.01ZM97.555 19.93L96.4853 19.2832L96.4798 19.2924L96.4744 19.3017L97.555 19.93ZM96.211 23.066L95.0167 22.6969L95.0137 22.7068L95.0108 22.7168L96.211 23.066ZM105.42 16.0879L103.212 26.5519L105.658 27.0681L107.866 16.6041L105.42 16.0879ZM103.208 26.5714C103.104 27.1073 103.097 27.7206 103.371 28.2933C103.662 28.9005 104.175 29.2717 104.732 29.4637L105.546 27.1003C105.508 27.0869 105.515 27.083 105.542 27.1058C105.556 27.1171 105.572 27.1329 105.588 27.1533C105.604 27.1737 105.617 27.1948 105.627 27.2147C105.646 27.2555 105.644 27.2739 105.642 27.2494C105.64 27.2225 105.641 27.1585 105.662 27.0486L103.208 26.5714ZM104.732 29.4637L105.66 29.7837L106.474 27.4203L105.546 27.1003L104.732 29.4637ZM104.828 28.4331L104.636 29.8411L107.114 30.1789L107.306 28.7709L104.828 28.4331ZM105.751 28.7662L99.0306 29.4382L99.2794 31.9258L105.999 31.2538L105.751 28.7662ZM100.395 30.837C100.451 30.3946 100.555 29.8757 100.715 29.2761L98.2992 28.6319C98.1178 29.3123 97.9873 29.9454 97.9147 30.5269L100.395 30.837ZM100.707 29.3025C100.881 28.7047 101.266 27.6452 101.885 26.0875L99.5613 25.1645C98.9428 26.7214 98.517 27.8806 98.3066 28.6055L100.707 29.3025ZM99.6155 25.0465C98.6861 26.8225 97.824 27.9864 97.058 28.648L98.692 30.54C99.8033 29.5803 100.84 28.0988 101.831 26.2055L99.6155 25.0465ZM97.0473 28.6573C96.3611 29.2637 95.579 29.56 94.643 29.56V32.06C96.1816 32.06 97.5543 31.5456 98.7027 30.5307L97.0473 28.6573ZM94.643 29.56C93.5689 29.56 92.8712 29.2301 92.3823 28.6732L90.5037 30.3227C91.5508 31.5152 92.9865 32.06 94.643 32.06V29.56ZM92.4033 28.6978C91.9008 28.0948 91.573 27.1757 91.573 25.786H89.073C89.073 27.5536 89.4919 29.1092 90.4827 30.2982L92.4033 28.6978ZM91.573 25.786C91.573 24.6609 91.8025 23.5595 92.2709 22.4728L89.9751 21.4832C89.3768 22.8711 89.073 24.3084 89.073 25.786H91.573ZM92.2739 22.4657C92.7475 21.348 93.3972 20.3703 94.2248 19.5239L92.4372 17.7761C91.3875 18.8497 90.5651 20.0906 89.9721 21.4903L92.2739 22.4657ZM94.2149 19.5339C95.0604 18.6883 96.035 18.032 97.1467 17.5609L96.1713 15.259C94.7657 15.8547 93.5216 16.6916 92.4471 17.7661L94.2149 19.5339ZM97.156 17.5569C98.2826 17.0687 99.4364 16.828 100.627 16.828V14.328C99.0869 14.328 97.5954 14.6419 96.162 15.263L97.156 17.5569ZM100.627 16.828C102.085 16.828 103.996 17.0661 106.385 17.5692L106.901 15.1228C104.426 14.6019 102.327 14.328 100.627 14.328V16.828ZM96.435 28.956C97.0333 28.956 97.5407 28.7033 97.9341 28.4C98.3259 28.098 98.676 27.6929 98.9937 27.2407L96.9483 25.8033C96.7114 26.1404 96.5281 26.3273 96.4079 26.42C96.2893 26.5114 96.306 26.456 96.435 26.456V28.956ZM98.99 27.246C99.6537 26.3119 100.274 25.0384 100.867 23.4783L98.5306 22.5897C97.9719 24.059 97.4403 25.1107 96.952 25.798L98.99 27.246ZM100.867 23.4783C101.473 21.8857 101.981 20.0574 102.396 18.0016L99.9458 17.5063C99.5506 19.4612 99.077 21.1529 98.5306 22.5897L100.867 23.4783ZM101.833 16.694C101.361 16.3984 100.812 16.184 100.211 16.184V18.684C100.211 18.684 100.212 18.684 100.215 18.6842C100.217 18.6844 100.221 18.6849 100.227 18.6858C100.238 18.6877 100.255 18.6916 100.28 18.6998C100.33 18.7166 100.406 18.7499 100.509 18.814L101.833 16.694ZM100.211 16.184C99.4274 16.184 98.7511 16.6276 98.2455 17.0609L99.8725 18.9591C100.046 18.8107 100.168 18.7329 100.242 18.696C100.317 18.6585 100.3 18.684 100.211 18.684V16.184ZM98.2725 17.0384C97.6533 17.5397 97.062 18.3295 96.4853 19.2832L98.6247 20.5768C99.1574 19.6958 99.5687 19.2056 99.8455 18.9815L98.2725 17.0384ZM96.4744 19.3017C95.8867 20.3125 95.4031 21.4469 95.0167 22.6969L97.4053 23.4351C97.7442 22.3384 98.1566 21.3822 98.6356 20.5583L96.4744 19.3017ZM95.0108 22.7168C94.6466 23.9685 94.449 25.1348 94.449 26.202H96.949C96.949 25.4345 97.0927 24.5102 97.4112 23.4152L95.0108 22.7168ZM94.449 26.202C94.449 26.7652 94.5114 27.371 94.7602 27.8794C94.8931 28.1509 95.098 28.433 95.4093 28.6451C95.7298 28.8634 96.088 28.956 96.435 28.956V26.456C96.5367 26.456 96.6802 26.4859 96.8167 26.5789C96.944 26.6656 96.9956 26.7597 97.0058 26.7805C97.0139 26.7971 96.9963 26.7667 96.9787 26.6587C96.9617 26.5543 96.949 26.405 96.949 26.202H94.449Z" fill="#F1EEE4" mask="url(#path-1-outside-1_26_37)"/>
<mask id="path-3-outside-2_26_37" maskUnits="userSpaceOnUse" x="111" y="4.48999" width="54" height="21" fill="black">
<rect fill="white" x="111" y="4.48999" width="54" height="21"/>
<path d="M122.16 20.91C122.653 20.91 123.26 20.75 123.98 20.43L124.42 21.41L121.44 23.47C121 23.3767 120.473 23.1233 119.86 22.71C119.247 22.31 118.833 22.0433 118.62 21.91C118.407 21.79 118.18 21.6967 117.94 21.63C117.713 21.5633 117.513 21.53 117.34 21.53C116.7 21.53 115.967 21.7367 115.14 22.15L114.68 21.19C115.067 20.8567 115.487 20.55 115.94 20.27C116.393 19.99 116.793 19.7833 117.14 19.65C115.847 19.3967 114.813 18.7767 114.04 17.79C113.28 16.79 112.9 15.57 112.9 14.13C112.9 13.1033 113.107 12.0967 113.52 11.11C113.933 10.1233 114.447 9.29666 115.06 8.62999C115.687 7.96332 116.327 7.43666 116.98 7.04999C117.647 6.66332 118.293 6.39666 118.92 6.24999C119.547 6.10332 120.093 6.02999 120.56 6.02999C121.307 6.02999 122 6.16332 122.64 6.42999C123.293 6.68332 123.853 7.05666 124.32 7.54999C124.8 8.04332 125.167 8.64332 125.42 9.34999C125.673 10.0433 125.8 10.81 125.8 11.65C125.8 12.61 125.633 13.5567 125.3 14.49C124.967 15.41 124.5 16.2367 123.9 16.97C123.3 17.7033 122.593 18.31 121.78 18.79C120.967 19.27 120.113 19.57 119.22 19.69C119.46 19.7833 119.92 20.01 120.6 20.37C121.293 20.73 121.813 20.91 122.16 20.91ZM120.08 7.34999C119.64 7.34999 119.2 7.52999 118.76 7.88999C118.32 8.24999 117.933 8.74332 117.6 9.36999C117.267 9.99666 117 10.73 116.8 11.57C116.6 12.41 116.5 13.2767 116.5 14.17C116.5 15.4633 116.693 16.4967 117.08 17.27C117.48 18.0433 118.027 18.43 118.72 18.43C119.173 18.43 119.613 18.2567 120.04 17.91C120.467 17.5633 120.84 17.0833 121.16 16.47C121.48 15.8567 121.733 15.13 121.92 14.29C122.107 13.45 122.2 12.57 122.2 11.65C122.2 10.33 122.013 9.28332 121.64 8.50999C121.267 7.73666 120.747 7.34999 120.08 7.34999ZM126.908 10.63L131.488 10.13C131.488 10.85 131.381 11.61 131.168 12.41L130.188 16.03C130.068 16.4967 130.048 16.87 130.128 17.15C130.208 17.43 130.368 17.57 130.608 17.57C130.754 17.57 130.954 17.4767 131.208 17.29C131.461 17.09 131.748 16.6767 132.068 16.05C132.401 15.41 132.734 14.5767 133.068 13.55C133.414 12.5233 133.694 11.4833 133.908 10.43L137.168 10.31L135.728 17.19C135.634 17.67 135.781 17.9767 136.168 18.11L136.748 18.31L136.628 19.19L132.448 19.61C132.581 18.7033 132.921 17.4767 133.468 15.93C132.854 17.33 132.208 18.31 131.528 18.87C130.848 19.4167 130.128 19.69 129.368 19.69C128.901 19.69 128.481 19.5967 128.108 19.41C127.748 19.21 127.461 18.9433 127.248 18.61C127.034 18.2633 126.901 17.8633 126.848 17.41C126.808 16.9433 126.854 16.45 126.988 15.93L127.848 12.69C127.901 12.4767 127.908 12.2833 127.868 12.11C127.828 11.9367 127.668 11.8033 127.388 11.71L126.788 11.51L126.908 10.63ZM147.262 12.29C147.262 12.7567 147.108 13.1833 146.802 13.57C146.508 13.9433 146.095 14.2633 145.562 14.53C145.042 14.7833 144.428 14.99 143.722 15.15C143.028 15.2967 142.295 15.39 141.522 15.43C141.388 16.91 141.902 17.65 143.062 17.65C143.782 17.65 144.702 17.3367 145.822 16.71L146.382 17.53C145.728 18.2233 145.015 18.7567 144.242 19.13C143.482 19.5033 142.695 19.69 141.882 19.69C140.762 19.69 139.855 19.3633 139.162 18.71C138.482 18.0567 138.142 17.1833 138.142 16.09C138.142 15.3433 138.308 14.61 138.642 13.89C138.988 13.17 139.455 12.53 140.042 11.97C140.642 11.41 141.315 10.97 142.062 10.65C142.822 10.33 143.595 10.17 144.382 10.17C145.248 10.17 145.942 10.3633 146.462 10.75C146.995 11.1367 147.262 11.65 147.262 12.29ZM143.822 11.33C143.462 11.33 143.068 11.6367 142.642 12.25C142.228 12.85 141.922 13.5433 141.722 14.33C142.255 14.2367 142.715 14.09 143.102 13.89C143.488 13.69 143.782 13.4433 143.982 13.15C144.195 12.8567 144.302 12.5033 144.302 12.09C144.302 11.5833 144.142 11.33 143.822 11.33ZM152.355 10.17C152.755 10.17 153.228 10.21 153.775 10.29C154.335 10.37 154.855 10.4767 155.335 10.61L154.915 13.11H153.815C153.628 12.5367 153.382 12.0967 153.075 11.79C152.782 11.4833 152.455 11.33 152.095 11.33C151.815 11.33 151.588 11.4033 151.415 11.55C151.242 11.6833 151.155 11.87 151.155 12.11C151.155 12.3233 151.228 12.5433 151.375 12.77C151.535 12.9967 151.908 13.3233 152.495 13.75C153.228 14.2833 153.742 14.7367 154.035 15.11C154.328 15.47 154.502 15.8033 154.555 16.11C154.622 16.4167 154.655 16.63 154.655 16.75C154.655 17.6567 154.288 18.3767 153.555 18.91C152.822 19.43 151.808 19.69 150.515 19.69C150.022 19.69 149.455 19.6433 148.815 19.55C148.188 19.4567 147.648 19.3433 147.195 19.21L147.375 16.49L148.535 16.35C148.762 17.0167 149.075 17.55 149.475 17.95C149.888 18.3367 150.342 18.53 150.835 18.53C151.128 18.53 151.348 18.4633 151.495 18.33C151.655 18.1833 151.735 17.99 151.735 17.75C151.735 17.5233 151.648 17.29 151.475 17.05C151.315 16.7967 150.875 16.4033 150.155 15.87C149.568 15.4433 149.122 15.0167 148.815 14.59C148.508 14.1633 148.355 13.6767 148.355 13.13C148.355 12.2633 148.722 11.5567 149.455 11.01C150.202 10.45 151.168 10.17 152.355 10.17ZM160.799 11.91L159.979 15.81C159.819 16.5833 159.779 17.13 159.859 17.45C159.952 17.77 160.166 17.93 160.499 17.93C160.819 17.93 161.199 17.81 161.639 17.57L161.899 18.53C161.126 19.3033 160.192 19.69 159.099 19.69C158.499 19.69 157.992 19.57 157.579 19.33C157.179 19.0767 156.879 18.6967 156.679 18.19C156.492 17.67 156.479 17.0233 156.639 16.25L157.559 11.91H156.259L156.639 10.71L157.199 10.59C157.719 10.4833 158.092 10.23 158.319 9.82999L159.019 8.58999L161.559 8.30999L161.079 10.55H163.359L163.039 11.91H160.799Z"/>
</mask>
<path d="M122.16 20.91C122.653 20.91 123.26 20.75 123.98 20.43L124.42 21.41L121.44 23.47C121 23.3767 120.473 23.1233 119.86 22.71C119.247 22.31 118.833 22.0433 118.62 21.91C118.407 21.79 118.18 21.6967 117.94 21.63C117.713 21.5633 117.513 21.53 117.34 21.53C116.7 21.53 115.967 21.7367 115.14 22.15L114.68 21.19C115.067 20.8567 115.487 20.55 115.94 20.27C116.393 19.99 116.793 19.7833 117.14 19.65C115.847 19.3967 114.813 18.7767 114.04 17.79C113.28 16.79 112.9 15.57 112.9 14.13C112.9 13.1033 113.107 12.0967 113.52 11.11C113.933 10.1233 114.447 9.29666 115.06 8.62999C115.687 7.96332 116.327 7.43666 116.98 7.04999C117.647 6.66332 118.293 6.39666 118.92 6.24999C119.547 6.10332 120.093 6.02999 120.56 6.02999C121.307 6.02999 122 6.16332 122.64 6.42999C123.293 6.68332 123.853 7.05666 124.32 7.54999C124.8 8.04332 125.167 8.64332 125.42 9.34999C125.673 10.0433 125.8 10.81 125.8 11.65C125.8 12.61 125.633 13.5567 125.3 14.49C124.967 15.41 124.5 16.2367 123.9 16.97C123.3 17.7033 122.593 18.31 121.78 18.79C120.967 19.27 120.113 19.57 119.22 19.69C119.46 19.7833 119.92 20.01 120.6 20.37C121.293 20.73 121.813 20.91 122.16 20.91ZM120.08 7.34999C119.64 7.34999 119.2 7.52999 118.76 7.88999C118.32 8.24999 117.933 8.74332 117.6 9.36999C117.267 9.99666 117 10.73 116.8 11.57C116.6 12.41 116.5 13.2767 116.5 14.17C116.5 15.4633 116.693 16.4967 117.08 17.27C117.48 18.0433 118.027 18.43 118.72 18.43C119.173 18.43 119.613 18.2567 120.04 17.91C120.467 17.5633 120.84 17.0833 121.16 16.47C121.48 15.8567 121.733 15.13 121.92 14.29C122.107 13.45 122.2 12.57 122.2 11.65C122.2 10.33 122.013 9.28332 121.64 8.50999C121.267 7.73666 120.747 7.34999 120.08 7.34999ZM126.908 10.63L131.488 10.13C131.488 10.85 131.381 11.61 131.168 12.41L130.188 16.03C130.068 16.4967 130.048 16.87 130.128 17.15C130.208 17.43 130.368 17.57 130.608 17.57C130.754 17.57 130.954 17.4767 131.208 17.29C131.461 17.09 131.748 16.6767 132.068 16.05C132.401 15.41 132.734 14.5767 133.068 13.55C133.414 12.5233 133.694 11.4833 133.908 10.43L137.168 10.31L135.728 17.19C135.634 17.67 135.781 17.9767 136.168 18.11L136.748 18.31L136.628 19.19L132.448 19.61C132.581 18.7033 132.921 17.4767 133.468 15.93C132.854 17.33 132.208 18.31 131.528 18.87C130.848 19.4167 130.128 19.69 129.368 19.69C128.901 19.69 128.481 19.5967 128.108 19.41C127.748 19.21 127.461 18.9433 127.248 18.61C127.034 18.2633 126.901 17.8633 126.848 17.41C126.808 16.9433 126.854 16.45 126.988 15.93L127.848 12.69C127.901 12.4767 127.908 12.2833 127.868 12.11C127.828 11.9367 127.668 11.8033 127.388 11.71L126.788 11.51L126.908 10.63ZM147.262 12.29C147.262 12.7567 147.108 13.1833 146.802 13.57C146.508 13.9433 146.095 14.2633 145.562 14.53C145.042 14.7833 144.428 14.99 143.722 15.15C143.028 15.2967 142.295 15.39 141.522 15.43C141.388 16.91 141.902 17.65 143.062 17.65C143.782 17.65 144.702 17.3367 145.822 16.71L146.382 17.53C145.728 18.2233 145.015 18.7567 144.242 19.13C143.482 19.5033 142.695 19.69 141.882 19.69C140.762 19.69 139.855 19.3633 139.162 18.71C138.482 18.0567 138.142 17.1833 138.142 16.09C138.142 15.3433 138.308 14.61 138.642 13.89C138.988 13.17 139.455 12.53 140.042 11.97C140.642 11.41 141.315 10.97 142.062 10.65C142.822 10.33 143.595 10.17 144.382 10.17C145.248 10.17 145.942 10.3633 146.462 10.75C146.995 11.1367 147.262 11.65 147.262 12.29ZM143.822 11.33C143.462 11.33 143.068 11.6367 142.642 12.25C142.228 12.85 141.922 13.5433 141.722 14.33C142.255 14.2367 142.715 14.09 143.102 13.89C143.488 13.69 143.782 13.4433 143.982 13.15C144.195 12.8567 144.302 12.5033 144.302 12.09C144.302 11.5833 144.142 11.33 143.822 11.33ZM152.355 10.17C152.755 10.17 153.228 10.21 153.775 10.29C154.335 10.37 154.855 10.4767 155.335 10.61L154.915 13.11H153.815C153.628 12.5367 153.382 12.0967 153.075 11.79C152.782 11.4833 152.455 11.33 152.095 11.33C151.815 11.33 151.588 11.4033 151.415 11.55C151.242 11.6833 151.155 11.87 151.155 12.11C151.155 12.3233 151.228 12.5433 151.375 12.77C151.535 12.9967 151.908 13.3233 152.495 13.75C153.228 14.2833 153.742 14.7367 154.035 15.11C154.328 15.47 154.502 15.8033 154.555 16.11C154.622 16.4167 154.655 16.63 154.655 16.75C154.655 17.6567 154.288 18.3767 153.555 18.91C152.822 19.43 151.808 19.69 150.515 19.69C150.022 19.69 149.455 19.6433 148.815 19.55C148.188 19.4567 147.648 19.3433 147.195 19.21L147.375 16.49L148.535 16.35C148.762 17.0167 149.075 17.55 149.475 17.95C149.888 18.3367 150.342 18.53 150.835 18.53C151.128 18.53 151.348 18.4633 151.495 18.33C151.655 18.1833 151.735 17.99 151.735 17.75C151.735 17.5233 151.648 17.29 151.475 17.05C151.315 16.7967 150.875 16.4033 150.155 15.87C149.568 15.4433 149.122 15.0167 148.815 14.59C148.508 14.1633 148.355 13.6767 148.355 13.13C148.355 12.2633 148.722 11.5567 149.455 11.01C150.202 10.45 151.168 10.17 152.355 10.17ZM160.799 11.91L159.979 15.81C159.819 16.5833 159.779 17.13 159.859 17.45C159.952 17.77 160.166 17.93 160.499 17.93C160.819 17.93 161.199 17.81 161.639 17.57L161.899 18.53C161.126 19.3033 160.192 19.69 159.099 19.69C158.499 19.69 157.992 19.57 157.579 19.33C157.179 19.0767 156.879 18.6967 156.679 18.19C156.492 17.67 156.479 17.0233 156.639 16.25L157.559 11.91H156.259L156.639 10.71L157.199 10.59C157.719 10.4833 158.092 10.23 158.319 9.82999L159.019 8.58999L161.559 8.30999L161.079 10.55H163.359L163.039 11.91H160.799Z" fill="#E94F2D"/>
<path d="M123.98 20.43L125.12 19.918L124.61 18.782L123.472 19.2877L123.98 20.43ZM124.42 21.41L125.131 22.4382L125.986 21.8468L125.56 20.898L124.42 21.41ZM121.44 23.47L121.181 24.6928L121.708 24.8046L122.151 24.4982L121.44 23.47ZM119.86 22.71L120.559 21.6734L120.551 21.6681L120.543 21.663L119.86 22.71ZM118.62 21.91L119.283 20.85L119.258 20.8347L119.233 20.8205L118.62 21.91ZM117.94 21.63L117.587 22.8292L117.596 22.8319L117.605 22.8344L117.94 21.63ZM115.14 22.15L114.013 22.6901L114.562 23.8365L115.699 23.268L115.14 22.15ZM114.68 21.19L113.864 20.2432L113.139 20.8677L113.553 21.7301L114.68 21.19ZM115.94 20.27L116.597 21.3335L116.597 21.3335L115.94 20.27ZM117.14 19.65L117.589 20.8167L121.641 19.258L117.38 18.4233L117.14 19.65ZM114.04 17.79L113.045 18.5463L113.05 18.5538L113.056 18.5611L114.04 17.79ZM113.52 11.11L112.367 10.627L113.52 11.11ZM115.06 8.62999L114.149 7.7738L114.14 7.78367L115.06 8.62999ZM116.98 7.04999L116.353 5.96866L116.343 5.97427L116.98 7.04999ZM118.92 6.24999L118.635 5.03288L118.635 5.03288L118.92 6.24999ZM122.64 6.42999L122.159 7.58384L122.174 7.58982L122.188 7.59544L122.64 6.42999ZM124.32 7.54999L123.412 8.40899L123.418 8.41538L123.424 8.42168L124.32 7.54999ZM125.42 9.34999L124.243 9.77182L124.246 9.77898L125.42 9.34999ZM125.3 14.49L126.475 14.9158L126.477 14.9104L125.3 14.49ZM123.9 16.97L124.867 17.7615L124.867 17.7615L123.9 16.97ZM121.78 18.79L122.415 19.8665L122.415 19.8665L121.78 18.79ZM119.22 19.69L119.054 18.4511L118.767 20.855L119.22 19.69ZM120.6 20.37L120.015 21.4748L120.024 21.4794L120.6 20.37ZM118.76 7.88999L119.552 8.85744L119.552 8.85744L118.76 7.88999ZM117.6 9.36999L116.496 8.78297L116.496 8.78297L117.6 9.36999ZM116.8 11.57L115.584 11.2805L115.584 11.2805L116.8 11.57ZM117.08 17.27L115.962 17.829L115.966 17.8367L115.97 17.8443L117.08 17.27ZM121.16 16.47L122.268 17.0482L122.268 17.0482L121.16 16.47ZM121.92 14.29L120.7 14.0188L120.7 14.0188L121.92 14.29ZM121.64 8.50999L120.514 9.05343L120.514 9.05343L121.64 8.50999ZM122.16 22.16C122.902 22.16 123.692 21.9257 124.488 21.5723L123.472 19.2877C122.828 19.5743 122.405 19.66 122.16 19.66V22.16ZM122.84 20.942L123.28 21.922L125.56 20.898L125.12 19.918L122.84 20.942ZM123.709 20.3818L120.729 22.4418L122.151 24.4982L125.131 22.4382L123.709 20.3818ZM121.699 22.2472C121.485 22.2018 121.114 22.0474 120.559 21.6734L119.161 23.7466C119.833 24.1992 120.515 24.5515 121.181 24.6928L121.699 22.2472ZM120.543 21.663C119.931 21.2639 119.508 20.9907 119.283 20.85L117.958 22.97C118.159 23.0959 118.562 23.3561 119.177 23.757L120.543 21.663ZM119.233 20.8205C118.93 20.6503 118.61 20.5187 118.275 20.4256L117.605 22.8344C117.75 22.8746 117.883 22.9297 118.007 22.9995L119.233 20.8205ZM118.293 20.4308C117.99 20.3417 117.667 20.28 117.34 20.28V22.78C117.36 22.78 117.437 22.7849 117.587 22.8292L118.293 20.4308ZM117.34 20.28C116.439 20.28 115.51 20.5676 114.581 21.032L115.699 23.268C116.424 22.9057 116.961 22.78 117.34 22.78V20.28ZM116.267 21.6098L115.807 20.6498L113.553 21.7301L114.013 22.6901L116.267 21.6098ZM115.496 22.1368C115.831 21.8483 116.197 21.5803 116.597 21.3335L115.283 19.2065C114.776 19.5196 114.303 19.865 113.864 20.2432L115.496 22.1368ZM116.597 21.3335C117.01 21.0783 117.338 20.913 117.589 20.8167L116.691 18.4833C116.248 18.6536 115.777 18.9017 115.283 19.2065L116.597 21.3335ZM117.38 18.4233C116.365 18.2244 115.602 17.7565 115.024 17.0189L113.056 18.5611C114.025 19.7968 115.328 20.5689 116.9 20.8767L117.38 18.4233ZM115.035 17.0336C114.464 16.2822 114.15 15.3386 114.15 14.13H111.65C111.65 15.8014 112.096 17.2978 113.045 18.5463L115.035 17.0336ZM114.15 14.13C114.15 13.2761 114.321 12.4332 114.673 11.593L112.367 10.627C111.892 11.7601 111.65 12.9305 111.65 14.13H114.15ZM114.673 11.593C115.04 10.7164 115.481 10.0189 115.98 9.47631L114.14 7.78367C113.413 8.57437 112.827 9.53026 112.367 10.627L114.673 11.593ZM115.971 9.48613C116.533 8.88824 117.083 8.44166 117.617 8.12571L116.343 5.97427C115.571 6.43166 114.841 7.0384 114.149 7.77385L115.971 9.48613ZM117.607 8.13128C118.187 7.79472 118.719 7.58073 119.205 7.4671L118.635 5.03288C117.867 5.21258 117.106 5.53193 116.353 5.9687L117.607 8.13128ZM119.205 7.4671C119.771 7.33469 120.218 7.27999 120.56 7.27999V4.77999C119.969 4.77999 119.323 4.87195 118.635 5.03288L119.205 7.4671ZM120.56 7.27999C121.154 7.27999 121.683 7.3854 122.159 7.58384L123.121 5.27614C122.317 4.94125 121.459 4.77999 120.56 4.77999V7.27999ZM122.188 7.59544C122.674 7.78393 123.077 8.05473 123.412 8.40899L125.228 6.69099C124.63 6.05858 123.912 5.58272 123.092 5.26454L122.188 7.59544ZM123.424 8.42168C123.768 8.77561 124.045 9.21803 124.243 9.77182L126.597 8.92816C126.289 8.06862 125.832 7.31103 125.216 6.6783L123.424 8.42168ZM124.246 9.77898C124.443 10.3173 124.55 10.9364 124.55 11.65H127.05C127.05 10.6836 126.904 9.76935 126.594 8.921L124.246 9.77898ZM124.55 11.65C124.55 12.4621 124.41 13.2667 124.123 14.0696L126.477 14.9104C126.857 13.8466 127.05 12.7579 127.05 11.65H124.55ZM124.125 14.0642C123.838 14.8558 123.44 15.558 122.933 16.1784L124.867 17.7615C125.56 16.9153 126.095 15.9642 126.475 14.9158L124.125 14.0642ZM122.933 16.1784C122.425 16.7984 121.831 17.3084 121.145 17.7135L122.415 19.8665C123.356 19.3115 124.175 18.6083 124.867 17.7615L122.933 16.1784ZM121.145 17.7135C120.468 18.1127 119.773 18.3544 119.054 18.4511L119.386 20.9289C120.453 20.7856 121.465 20.4273 122.415 19.8665L121.145 17.7135ZM118.767 20.855C118.928 20.9177 119.325 21.1091 120.015 21.4747L121.185 19.2653C120.515 18.9109 119.992 18.649 119.673 18.525L118.767 20.855ZM120.024 21.4794C120.725 21.8435 121.483 22.16 122.16 22.16V19.66C122.183 19.66 122.115 19.6617 121.919 19.5938C121.735 19.5299 121.489 19.4232 121.176 19.2606L120.024 21.4794ZM120.08 6.09999C119.276 6.09999 118.566 6.43398 117.968 6.92254L119.552 8.85744C119.834 8.626 120.004 8.59999 120.08 8.59999V6.09999ZM117.968 6.92254C117.373 7.40999 116.889 8.04521 116.496 8.78297L118.704 9.95701C118.978 9.44144 119.267 9.08999 119.552 8.85744L117.968 6.92254ZM116.496 8.78297C116.104 9.52129 115.804 10.3584 115.584 11.2805L118.016 11.8595C118.196 11.1016 118.43 10.472 118.704 9.957L116.496 8.78297ZM115.584 11.2805C115.361 12.2185 115.25 13.1825 115.25 14.17H117.75C117.75 13.3708 117.839 12.6014 118.016 11.8595L115.584 11.2805ZM115.25 14.17C115.25 15.5692 115.456 16.8175 115.962 17.829L118.198 16.711C117.93 16.1758 117.75 15.3575 117.75 14.17H115.25ZM115.97 17.8443C116.519 18.9066 117.433 19.68 118.72 19.68V17.18C118.621 17.18 118.441 17.18 118.19 16.6957L115.97 17.8443ZM118.72 19.68C119.518 19.68 120.228 19.368 120.828 18.8801L119.252 16.9398C118.999 17.1453 118.829 17.18 118.72 17.18V19.68ZM120.828 18.8801C121.417 18.4021 121.889 17.7749 122.268 17.0482L120.052 15.8918C119.791 16.3917 119.517 16.7246 119.252 16.9398L120.828 18.8801ZM122.268 17.0482C122.649 16.3177 122.935 15.4832 123.14 14.5612L120.7 14.0188C120.531 14.7768 120.311 15.3957 120.052 15.8918L122.268 17.0482ZM123.14 14.5612C123.348 13.6262 123.45 12.6549 123.45 11.65H120.95C120.95 12.485 120.865 13.2738 120.7 14.0188L123.14 14.5612ZM123.45 11.65C123.45 10.2332 123.253 8.97596 122.766 7.96655L120.514 9.05343C120.774 9.59068 120.95 10.4267 120.95 11.65H123.45ZM122.766 7.96655C122.255 6.90959 121.372 6.09999 120.08 6.09999V8.59999C120.153 8.59999 120.186 8.61496 120.224 8.64307C120.278 8.68337 120.388 8.7916 120.514 9.05343L122.766 7.96655ZM126.908 10.63L126.772 9.38737L125.801 9.49337L125.669 10.4611L126.908 10.63ZM131.488 10.13H132.738V8.7361L131.352 8.88737L131.488 10.13ZM131.168 12.41L132.374 12.7366L132.375 12.7321L131.168 12.41ZM130.188 16.03L128.981 15.7034L128.979 15.711L128.977 15.7187L130.188 16.03ZM130.128 17.15L131.33 16.8066L131.33 16.8066L130.128 17.15ZM131.208 17.29L131.949 18.2963L131.966 18.284L131.982 18.2711L131.208 17.29ZM132.068 16.05L130.959 15.4726L130.954 15.4815L132.068 16.05ZM133.068 13.55L131.883 13.1501L131.881 13.157L131.879 13.164L133.068 13.55ZM133.908 10.43L133.862 9.18084L132.878 9.21705L132.683 10.1819L133.908 10.43ZM137.168 10.31L138.391 10.5661L138.718 9.00206L137.122 9.06084L137.168 10.31ZM135.728 17.19L134.504 16.9339L134.502 16.9426L134.501 16.9514L135.728 17.19ZM136.168 18.11L136.575 16.9283L136.575 16.9283L136.168 18.11ZM136.748 18.31L137.986 18.4789L138.125 17.4626L137.155 17.1283L136.748 18.31ZM136.628 19.19L136.753 20.4337L137.733 20.3352L137.866 19.3589L136.628 19.19ZM132.448 19.61L131.211 19.4281L130.978 21.014L132.573 20.8537L132.448 19.61ZM133.468 15.93L134.646 16.3465L132.323 15.4284L133.468 15.93ZM131.528 18.87L132.311 19.8442L132.317 19.8396L132.322 19.8349L131.528 18.87ZM128.108 19.41L127.501 20.5027L127.524 20.5159L127.549 20.528L128.108 19.41ZM127.248 18.61L126.183 19.2651L126.189 19.2745L126.195 19.2838L127.248 18.61ZM126.848 17.41L125.602 17.5167L125.604 17.5364L125.606 17.556L126.848 17.41ZM126.988 15.93L125.779 15.6093L125.777 15.6195L126.988 15.93ZM127.848 12.69L129.056 13.0107L129.058 13.0019L129.06 12.9932L127.848 12.69ZM127.388 11.71L127.783 10.5241L127.783 10.5241L127.388 11.71ZM126.788 11.51L125.549 11.3411L125.409 12.3681L126.392 12.6958L126.788 11.51ZM127.043 11.8726L131.623 11.3726L131.352 8.88737L126.772 9.38737L127.043 11.8726ZM130.238 10.13C130.238 10.7264 130.149 11.3776 129.96 12.0879L132.375 12.7321C132.613 11.8424 132.738 10.9736 132.738 10.13H130.238ZM129.961 12.0834L128.981 15.7034L131.394 16.3566L132.374 12.7366L129.961 12.0834ZM128.977 15.7187C128.834 16.275 128.757 16.9026 128.926 17.4934L131.33 16.8066C131.337 16.8315 131.326 16.8124 131.331 16.7269C131.335 16.6424 131.353 16.5162 131.398 16.3413L128.977 15.7187ZM128.926 17.4934C129.008 17.782 129.168 18.1287 129.485 18.4057C129.822 18.7009 130.227 18.82 130.608 18.82V16.32C130.749 16.32 130.953 16.369 131.131 16.5243C131.287 16.6613 131.327 16.798 131.33 16.8066L128.926 17.4934ZM130.608 18.82C131.192 18.82 131.679 18.4952 131.949 18.2963L130.466 16.2837C130.425 16.3136 130.394 16.3347 130.371 16.349C130.347 16.3635 130.337 16.3682 130.339 16.3673C130.34 16.3666 130.362 16.3563 130.403 16.3455C130.443 16.3347 130.513 16.32 130.608 16.32V18.82ZM131.982 18.2711C132.465 17.8899 132.853 17.2599 133.181 16.6185L130.954 15.4815C130.811 15.763 130.687 15.971 130.586 16.1176C130.478 16.2727 130.424 16.3158 130.433 16.3089L131.982 18.2711ZM133.176 16.6274C133.553 15.9038 133.911 14.9996 134.257 13.936L131.879 13.164C131.557 14.1537 131.249 14.9161 130.959 15.4726L133.176 16.6274ZM134.252 13.9499C134.615 12.8739 134.909 11.7833 135.133 10.6781L132.683 10.1819C132.48 11.1834 132.213 12.1727 131.883 13.1501L134.252 13.9499ZM133.954 11.6791L137.214 11.5591L137.122 9.06084L133.862 9.18084L133.954 11.6791ZM135.944 10.0539L134.504 16.9339L136.951 17.4461L138.391 10.5661L135.944 10.0539ZM134.501 16.9514C134.424 17.3433 134.41 17.8386 134.64 18.3193C134.886 18.8345 135.319 19.1397 135.76 19.2917L136.575 16.9283C136.594 16.9349 136.651 16.9575 136.718 17.0133C136.789 17.072 136.852 17.1504 136.895 17.2407C136.979 17.4147 136.938 17.5167 136.955 17.4286L134.501 16.9514ZM135.76 19.2917L136.34 19.4917L137.155 17.1283L136.575 16.9283L135.76 19.2917ZM135.509 18.1411L135.389 19.0211L137.866 19.3589L137.986 18.4789L135.509 18.1411ZM136.503 17.9463L132.323 18.3663L132.573 20.8537L136.753 20.4337L136.503 17.9463ZM133.684 19.7919C133.8 19.0042 134.109 17.8666 134.646 16.3465L132.289 15.5134C131.733 17.0867 131.362 18.4024 131.211 19.4281L133.684 19.7919ZM132.323 15.4284C131.738 16.7626 131.188 17.5303 130.733 17.9051L132.322 19.8349C133.227 19.0897 133.97 17.8973 134.613 16.4316L132.323 15.4284ZM130.744 17.8958C130.252 18.2917 129.801 18.44 129.368 18.44V20.94C130.454 20.94 131.443 20.5416 132.311 19.8442L130.744 17.8958ZM129.368 18.44C129.072 18.44 128.847 18.382 128.667 18.292L127.549 20.528C128.115 20.8113 128.73 20.94 129.368 20.94V18.44ZM128.715 18.3173C128.528 18.2136 128.398 18.0879 128.3 17.9362L126.195 19.2838C126.524 19.7987 126.967 20.2064 127.501 20.5027L128.715 18.3173ZM128.312 17.9549C128.205 17.7808 128.124 17.5588 128.089 17.2639L125.606 17.556C125.678 18.1679 125.864 18.7458 126.183 19.2651L128.312 17.9549ZM128.093 17.3032C128.067 16.9954 128.095 16.6439 128.198 16.2405L125.777 15.6195C125.614 16.2561 125.549 16.8912 125.602 17.5167L128.093 17.3032ZM128.196 16.2507L129.056 13.0107L126.639 12.3693L125.779 15.6093L128.196 16.2507ZM129.06 12.9932C129.15 12.6327 129.179 12.2348 129.086 11.8289L126.65 12.3911C126.646 12.3772 126.645 12.3656 126.644 12.3569C126.643 12.3483 126.643 12.3431 126.643 12.3419C126.643 12.3399 126.643 12.354 126.635 12.3868L129.06 12.9932ZM129.086 11.8289C128.896 11.0065 128.196 10.6617 127.783 10.5241L126.992 12.8958C127.041 12.9122 126.996 12.9057 126.917 12.8403C126.825 12.7632 126.701 12.6139 126.65 12.3911L129.086 11.8289ZM127.783 10.5241L127.183 10.3241L126.392 12.6958L126.992 12.8958L127.783 10.5241ZM128.026 11.6789L128.146 10.7989L125.669 10.4611L125.549 11.3411L128.026 11.6789ZM146.802 13.57L145.822 12.7932L145.819 12.7977L146.802 13.57ZM145.562 14.53L146.109 15.6538L146.121 15.648L145.562 14.53ZM143.722 15.15L143.98 16.3729L143.989 16.3711L143.998 16.3691L143.722 15.15ZM141.522 15.43L141.457 14.1817L140.374 14.2377L140.277 15.3178L141.522 15.43ZM145.822 16.71L146.854 16.005L146.209 15.0608L145.211 15.6191L145.822 16.71ZM146.382 17.53L147.291 18.3872L147.981 17.6554L147.414 16.825L146.382 17.53ZM144.242 19.13L143.698 18.0043L143.691 18.008L144.242 19.13ZM139.162 18.71L138.296 19.6114L138.304 19.6197L139.162 18.71ZM138.642 13.89L137.515 13.3477L137.511 13.3562L137.507 13.3648L138.642 13.89ZM140.042 11.97L139.189 11.0561L139.179 11.0658L140.042 11.97ZM142.062 10.65L141.577 9.49792L141.569 9.50106L142.062 10.65ZM146.462 10.75L145.716 11.7531L145.722 11.7576L145.728 11.762L146.462 10.75ZM142.642 12.25L141.616 11.5362L141.612 11.5409L142.642 12.25ZM141.722 14.33L140.51 14.022L140.034 15.8943L141.937 15.5613L141.722 14.33ZM143.102 13.89L143.676 15.0003L143.676 15.0003L143.102 13.89ZM143.982 13.15L142.971 12.4148L142.96 12.4301L142.949 12.4458L143.982 13.15ZM146.012 12.29C146.012 12.4577 145.965 12.6139 145.822 12.7932L147.781 14.3467C148.252 13.7528 148.512 13.0556 148.512 12.29H146.012ZM145.819 12.7977C145.665 12.9937 145.412 13.2073 145.003 13.412L146.121 15.648C146.778 15.3193 147.352 14.893 147.785 14.3423L145.819 12.7977ZM145.014 13.4063C144.599 13.6084 144.081 13.787 143.446 13.9308L143.998 16.3691C144.776 16.193 145.484 15.9582 146.109 15.6537L145.014 13.4063ZM143.463 13.9271C142.839 14.059 142.171 14.1447 141.457 14.1817L141.586 16.6783C142.419 16.6353 143.218 16.5343 143.98 16.3729L143.463 13.9271ZM140.277 15.3178C140.2 16.174 140.277 17.0833 140.78 17.8075C141.336 18.6094 142.203 18.9 143.062 18.9V16.4C142.901 16.4 142.832 16.3739 142.819 16.368C142.813 16.3655 142.816 16.3663 142.823 16.3723C142.831 16.3783 142.834 16.3832 142.834 16.3825C142.823 16.3667 142.71 16.166 142.767 15.5421L140.277 15.3178ZM143.062 18.9C144.104 18.9 145.251 18.4617 146.432 17.8008L145.211 15.6191C144.153 16.2116 143.46 16.4 143.062 16.4V18.9ZM144.789 17.4149L145.349 18.2349L147.414 16.825L146.854 16.005L144.789 17.4149ZM145.472 16.6727C144.912 17.2671 144.32 17.7042 143.698 18.0043L144.785 20.2557C145.71 19.8091 146.545 19.1795 147.291 18.3872L145.472 16.6727ZM143.691 18.008C143.095 18.3007 142.496 18.44 141.882 18.44V20.94C142.894 20.94 143.869 20.706 144.793 20.2519L143.691 18.008ZM141.882 18.44C141.021 18.44 140.44 18.1972 140.019 17.8003L138.304 19.6197C139.27 20.5294 140.503 20.94 141.882 20.94V18.44ZM140.028 17.8086C139.633 17.429 139.392 16.9022 139.392 16.09H136.892C136.892 17.4645 137.331 18.6843 138.296 19.6114L140.028 17.8086ZM139.392 16.09C139.392 15.5359 139.514 14.9811 139.776 14.4151L137.507 13.3648C137.103 14.2389 136.892 15.1507 136.892 16.09H139.392ZM139.768 14.4323C140.048 13.8498 140.425 13.3319 140.905 12.8742L139.179 11.0658C138.485 11.728 137.928 12.4902 137.515 13.3477L139.768 14.4323ZM140.895 12.8838C141.39 12.4214 141.942 12.0614 142.554 11.7989L141.569 9.50106C140.688 9.87859 139.893 10.3986 139.189 11.0562L140.895 12.8838ZM142.547 11.802C143.161 11.5435 143.77 11.42 144.382 11.42V8.91999C143.42 8.91999 142.483 9.11647 141.577 9.49795L142.547 11.802ZM144.382 11.42C145.07 11.42 145.474 11.5731 145.716 11.7531L147.208 9.74691C146.41 9.15351 145.427 8.91999 144.382 8.91999V11.42ZM145.728 11.762C145.948 11.9217 146.012 12.0642 146.012 12.29H148.512C148.512 11.2357 148.042 10.3516 147.195 9.73798L145.728 11.762ZM143.822 10.08C143.273 10.08 142.821 10.3146 142.488 10.5742C142.156 10.8329 141.869 11.1724 141.616 11.5362L143.668 12.9638C143.841 12.7143 143.964 12.5937 144.025 12.5458C144.086 12.4987 144.01 12.58 143.822 12.58V10.08ZM141.612 11.5409C141.106 12.2758 140.743 13.1082 140.51 14.022L142.933 14.638C143.101 13.9785 143.351 13.4241 143.671 12.9591L141.612 11.5409ZM141.937 15.5613C142.566 15.4512 143.153 15.2708 143.676 15.0003L142.527 12.7797C142.277 12.9092 141.944 13.0222 141.506 13.0987L141.937 15.5613ZM143.676 15.0003C144.206 14.7263 144.674 14.3534 145.015 13.8542L142.949 12.4458C142.889 12.5333 142.771 12.6537 142.527 12.7797L143.676 15.0003ZM144.993 13.8852C145.383 13.3491 145.552 12.7291 145.552 12.09H143.052C143.052 12.2775 143.008 12.3642 142.971 12.4148L144.993 13.8852ZM145.552 12.09C145.552 11.7454 145.505 11.2737 145.239 10.8525C144.911 10.3345 144.376 10.08 143.822 10.08V12.58C143.735 12.58 143.598 12.5619 143.448 12.483C143.295 12.4022 143.189 12.2893 143.125 12.1875C143.066 12.0941 143.051 12.0246 143.049 12.015C143.046 12.0042 143.052 12.0253 143.052 12.09H145.552ZM153.775 10.29L153.594 11.5268L153.598 11.5274L153.775 10.29ZM155.335 10.61L156.568 10.8171L156.754 9.70689L155.669 9.40559L155.335 10.61ZM154.915 13.11V14.36H155.972L156.148 13.3171L154.915 13.11ZM153.815 13.11L152.626 13.497L152.907 14.36H153.815V13.11ZM153.075 11.79L152.172 12.654L152.181 12.6641L152.191 12.6739L153.075 11.79ZM151.415 11.55L152.177 12.5408L152.2 12.523L152.222 12.5042L151.415 11.55ZM151.375 12.77L150.325 13.4491L150.339 13.4702L150.354 13.4908L151.375 12.77ZM152.495 13.75L151.76 14.7609L151.76 14.7609L152.495 13.75ZM154.035 15.11L153.052 15.8823L153.059 15.891L153.066 15.8996L154.035 15.11ZM154.555 16.11L153.323 16.3242L153.328 16.35L153.333 16.3755L154.555 16.11ZM153.555 18.91L154.278 19.9297L154.284 19.9253L154.29 19.9209L153.555 18.91ZM148.815 19.55L148.631 20.7864L148.634 20.7869L148.815 19.55ZM147.195 19.21L145.948 19.1275L145.881 20.1266L146.842 20.4092L147.195 19.21ZM147.375 16.49L147.225 15.249L146.196 15.3732L146.128 16.4075L147.375 16.49ZM148.535 16.35L149.718 15.9476L149.392 14.9875L148.385 15.109L148.535 16.35ZM149.475 17.95L148.591 18.8339L148.606 18.8486L148.621 18.8628L149.475 17.95ZM151.495 18.33L152.336 19.2549L152.34 19.2514L151.495 18.33ZM151.475 17.05L150.418 17.7175L150.439 17.7503L150.461 17.7819L151.475 17.05ZM150.155 15.87L150.899 14.8655L150.89 14.8591L150.155 15.87ZM148.815 14.59L147.8 15.3195L147.8 15.3195L148.815 14.59ZM149.455 11.01L150.202 12.0122L150.205 12.01L149.455 11.01ZM152.355 11.42C152.676 11.42 153.086 11.4525 153.594 11.5268L153.956 9.05316C153.37 8.96744 152.833 8.91999 152.355 8.91999V11.42ZM153.598 11.5274C154.112 11.6008 154.579 11.6972 155 11.8144L155.669 9.40559C155.131 9.25609 154.558 9.13916 153.952 9.05255L153.598 11.5274ZM154.102 10.4029L153.682 12.9029L156.148 13.3171L156.568 10.8171L154.102 10.4029ZM154.915 11.86H153.815V14.36H154.915V11.86ZM155.003 12.723C154.778 12.0313 154.448 11.3956 153.959 10.9061L152.191 12.6739C152.315 12.7977 152.478 13.042 152.626 13.497L155.003 12.723ZM153.978 10.926C153.495 10.4205 152.857 10.08 152.095 10.08V12.58C152.095 12.58 152.092 12.58 152.086 12.5787C152.081 12.5774 152.078 12.576 152.079 12.5765C152.08 12.5773 152.113 12.5928 152.172 12.654L153.978 10.926ZM152.095 10.08C151.591 10.08 151.056 10.2166 150.607 10.5958L152.222 12.5042C152.179 12.5411 152.133 12.5634 152.1 12.5743C152.069 12.5842 152.063 12.58 152.095 12.58V10.08ZM150.653 10.5592C150.139 10.9545 149.905 11.5254 149.905 12.11H152.405C152.405 12.1418 152.399 12.2196 152.354 12.3164C152.307 12.4169 152.239 12.4927 152.177 12.5408L150.653 10.5592ZM149.905 12.11C149.905 12.6209 150.082 13.0735 150.325 13.4491L152.424 12.0909C152.399 12.052 152.394 12.035 152.396 12.0397C152.397 12.0423 152.399 12.0501 152.401 12.0627C152.403 12.0753 152.405 12.0914 152.405 12.11H149.905ZM150.354 13.4908C150.648 13.9081 151.185 14.3432 151.76 14.7609L153.23 12.7391C152.955 12.5387 152.747 12.3745 152.598 12.2443C152.437 12.1036 152.391 12.0419 152.396 12.0491L150.354 13.4908ZM151.76 14.7609C152.468 15.2761 152.868 15.648 153.052 15.8823L155.018 14.3377C154.615 13.8254 153.988 13.2905 153.23 12.7391L151.76 14.7609ZM153.066 15.8996C153.285 16.1691 153.32 16.3075 153.323 16.3242L155.786 15.8958C155.683 15.2992 155.371 14.7709 155.004 14.3204L153.066 15.8996ZM153.333 16.3755C153.364 16.5145 153.383 16.6188 153.395 16.693C153.401 16.7296 153.403 16.7536 153.405 16.7669C153.406 16.782 153.405 16.7741 153.405 16.75H155.905C155.905 16.4783 155.841 16.1423 155.776 15.8445L153.333 16.3755ZM153.405 16.75C153.405 17.2567 153.23 17.6009 152.82 17.8991L154.29 19.9209C155.347 19.1524 155.905 18.0566 155.905 16.75H153.405ZM152.832 17.8903C152.384 18.2078 151.658 18.44 150.515 18.44V20.94C151.958 20.94 153.259 20.6522 154.278 19.9297L152.832 17.8903ZM150.515 18.44C150.097 18.44 149.593 18.4002 148.995 18.3131L148.634 20.7869C149.317 20.8864 149.946 20.94 150.515 20.94V18.44ZM148.999 18.3136C148.411 18.2261 147.931 18.1235 147.548 18.0108L146.842 20.4092C147.366 20.5632 147.965 20.6872 148.631 20.7864L148.999 18.3136ZM148.442 19.2925L148.622 16.5725L146.128 16.4075L145.948 19.1275L148.442 19.2925ZM147.525 17.731L148.685 17.591L148.385 15.109L147.225 15.249L147.525 17.731ZM147.351 16.7524C147.625 17.557 148.026 18.2694 148.591 18.8339L150.359 17.0661C150.123 16.8306 149.898 16.4763 149.718 15.9476L147.351 16.7524ZM148.621 18.8628C149.229 19.4319 149.978 19.78 150.835 19.78V17.28C150.705 17.28 150.547 17.2415 150.329 17.0372L148.621 18.8628ZM150.835 19.78C151.293 19.78 151.87 19.6784 152.336 19.2549L150.654 17.4051C150.738 17.3284 150.818 17.2956 150.857 17.2837C150.892 17.2732 150.891 17.28 150.835 17.28V19.78ZM152.34 19.2514C152.787 18.8415 152.985 18.2992 152.985 17.75H150.485C150.485 17.7299 150.489 17.6726 150.52 17.5971C150.552 17.5186 150.601 17.4539 150.65 17.4085L152.34 19.2514ZM152.985 17.75C152.985 17.1904 152.768 16.7062 152.488 16.3181L150.461 17.7819C150.494 17.8273 150.501 17.8468 150.498 17.8402C150.497 17.8365 150.493 17.8263 150.49 17.8102C150.487 17.7938 150.485 17.7735 150.485 17.75H152.985ZM152.532 16.3825C152.355 16.1034 152.098 15.8475 151.858 15.6331C151.599 15.4014 151.276 15.1446 150.899 14.8655L149.411 16.8744C149.754 17.1287 150.011 17.3352 150.192 17.4969C150.392 17.6758 150.434 17.7433 150.418 17.7175L152.532 16.3825ZM150.89 14.8591C150.373 14.4832 150.036 14.1466 149.83 13.8604L147.8 15.3195C148.207 15.8867 148.763 16.4035 149.42 16.8809L150.89 14.8591ZM149.83 13.8604C149.682 13.6553 149.605 13.4261 149.605 13.13H147.105C147.105 13.9272 147.334 14.6713 147.8 15.3195L149.83 13.8604ZM149.605 13.13C149.605 12.6829 149.765 12.3382 150.202 12.0122L148.708 10.0078C147.678 10.7751 147.105 11.8437 147.105 13.13H149.605ZM150.205 12.01C150.683 11.6517 151.365 11.42 152.355 11.42V8.91999C150.972 8.91999 149.72 9.24826 148.705 10.01L150.205 12.01ZM160.799 11.91V10.66H159.784L159.576 11.6528L160.799 11.91ZM159.979 15.81L158.756 15.5528L158.755 15.5567L159.979 15.81ZM159.859 17.45L158.646 17.7532L158.652 17.7767L158.659 17.8L159.859 17.45ZM161.639 17.57L162.845 17.2432L162.431 15.7139L161.04 16.4726L161.639 17.57ZM161.899 18.53L162.783 19.4139L163.295 18.902L163.105 18.2032L161.899 18.53ZM157.579 19.33L156.91 20.386L156.93 20.3989L156.951 20.411L157.579 19.33ZM156.679 18.19L155.502 18.6123L155.509 18.6307L155.516 18.6489L156.679 18.19ZM156.639 16.25L155.416 15.9908L155.415 15.9967L156.639 16.25ZM157.559 11.91L158.782 12.1692L159.102 10.66H157.559V11.91ZM156.259 11.91L155.067 11.5326L154.552 13.16H156.259V11.91ZM156.639 10.71L156.377 9.48774L155.667 9.63997L155.447 10.3326L156.639 10.71ZM157.199 10.59L156.948 9.36544L156.937 9.36774L157.199 10.59ZM158.319 9.82999L159.406 10.4463L159.407 10.4445L158.319 9.82999ZM159.019 8.58999L158.882 7.34752L158.245 7.4177L157.93 7.9755L159.019 8.58999ZM161.559 8.30999L162.781 8.5719L163.144 6.87766L161.422 7.06752L161.559 8.30999ZM161.079 10.55L159.857 10.2881L159.533 11.8H161.079V10.55ZM163.359 10.55L164.576 10.8363L164.937 9.29999H163.359V10.55ZM163.039 11.91V13.16H164.029L164.256 12.1963L163.039 11.91ZM159.576 11.6528L158.756 15.5528L161.202 16.0672L162.022 12.1672L159.576 11.6528ZM158.755 15.5567C158.596 16.3257 158.49 17.1278 158.646 17.7532L161.072 17.1468C161.078 17.1728 161.06 17.1075 161.076 16.8912C161.09 16.6903 161.13 16.4176 161.203 16.0632L158.755 15.5567ZM158.659 17.8C158.762 18.1537 158.967 18.5309 159.339 18.81C159.711 19.0891 160.13 19.18 160.499 19.18V16.68C160.534 16.68 160.68 16.6909 160.839 16.81C160.998 16.9291 161.049 17.0662 161.059 17.1L158.659 17.8ZM160.499 19.18C161.114 19.18 161.708 18.9561 162.237 18.6674L161.04 16.4726C160.69 16.6638 160.524 16.68 160.499 16.68V19.18ZM160.432 17.8968L160.692 18.8568L163.105 18.2032L162.845 17.2432L160.432 17.8968ZM161.015 17.6461C160.476 18.1851 159.861 18.44 159.099 18.44V20.94C160.524 20.94 161.775 20.4215 162.783 19.4139L161.015 17.6461ZM159.099 18.44C158.664 18.44 158.386 18.3534 158.207 18.249L156.951 20.411C157.598 20.7866 158.334 20.94 159.099 20.94V18.44ZM158.248 18.274C158.104 18.183 157.96 18.0299 157.842 17.731L155.516 18.6489C155.798 19.3634 156.254 19.9704 156.91 20.386L158.248 18.274ZM157.855 17.7677C157.773 17.538 157.731 17.143 157.863 16.5032L155.415 15.9967C155.227 16.9037 155.212 17.802 155.502 18.6123L157.855 17.7677ZM157.862 16.5092L158.782 12.1692L156.336 11.6508L155.416 15.9908L157.862 16.5092ZM157.559 10.66H156.259V13.16H157.559V10.66ZM157.451 12.2874L157.831 11.0874L155.447 10.3326L155.067 11.5326L157.451 12.2874ZM156.901 11.9322L157.461 11.8122L156.937 9.36774L156.377 9.48774L156.901 11.9322ZM157.45 11.8145C158.263 11.6477 158.974 11.2103 159.406 10.4463L157.231 9.21372C157.211 9.24973 157.175 9.31892 156.948 9.36549L157.45 11.8145ZM159.407 10.4445L160.107 9.20448L157.93 7.9755L157.23 9.2155L159.407 10.4445ZM159.156 9.83246L161.696 9.55246L161.422 7.06752L158.882 7.34752L159.156 9.83246ZM160.337 8.04808L159.857 10.2881L162.301 10.8119L162.781 8.5719L160.337 8.04808ZM161.079 11.8H163.359V9.29999H161.079V11.8ZM162.142 10.2637L161.822 11.6237L164.256 12.1963L164.576 10.8363L162.142 10.2637ZM163.039 10.66H160.799V13.16H163.039V10.66Z" fill="#F1EEE4" mask="url(#path-3-outside-2_26_37)"/>
<path d="M155.48 30.1677L112 30.49L112.828 25.9182L164 25.49L155.48 30.1677Z" fill="#E94F2D"/>
</svg>
