<svg width="24" height="24" viewBox="0 0 24 24" fill="none" xmlns="http://www.w3.org/2000/svg">
<path d="M17.75 11.75C17.75 15.0637 15.0637 17.75 11.75 17.75C8.43629 17.75 5.75 15.0637 5.75 11.75C5.75 8.43629 8.43629 5.75 11.75 5.75C15.0637 5.75 17.75 8.43629 17.75 11.75Z" fill="#F1EEE4"/>
<path fill-rule="evenodd" clip-rule="evenodd" d="M11.75 1C12.1642 1 12.5 1.33579 12.5 1.75V2.75C12.5 3.16421 12.1642 3.5 11.75 3.5C11.3358 3.5 11 3.16421 11 2.75V1.75C11 1.33579 11.3358 1 11.75 1ZM4.14861 4.14861C4.4415 3.85572 4.91638 3.85572 5.20927 4.14861L5.60211 4.54145C5.895 4.83434 5.895 5.30921 5.60211 5.60211C5.30921 5.895 4.83434 5.895 4.54145 5.60211L4.14861 5.20927C3.85572 4.91638 3.85572 4.4415 4.14861 4.14861ZM19.3511 4.14887C19.644 4.44176 19.644 4.91664 19.3511 5.20953L18.9583 5.60237C18.6654 5.89526 18.1905 5.89526 17.8976 5.60237C17.6047 5.30947 17.6047 4.8346 17.8976 4.54171L18.2905 4.14887C18.5834 3.85598 19.0582 3.85598 19.3511 4.14887ZM1 11.75C1 11.3358 1.33579 11 1.75 11H2.75C3.16421 11 3.5 11.3358 3.5 11.75C3.5 12.1642 3.16421 12.5 2.75 12.5H1.75C1.33579 12.5 1 12.1642 1 11.75ZM20 11.75C20 11.3358 20.3358 11 20.75 11H21.75C22.1642 11 22.5 11.3358 22.5 11.75C22.5 12.1642 22.1642 12.5 21.75 12.5H20.75C20.3358 12.5 20 12.1642 20 11.75ZM17.8976 17.8976C18.1905 17.6047 18.6654 17.6047 18.9583 17.8976L19.3511 18.2905C19.644 18.5834 19.644 19.0582 19.3511 19.3511C19.0582 19.644 18.5834 19.644 18.2905 19.3511L17.8976 18.9583C17.6047 18.6654 17.6047 18.1905 17.8976 17.8976ZM5.60211 17.8979C5.895 18.1908 5.895 18.6657 5.60211 18.9586L5.20927 19.3514C4.91638 19.6443 4.4415 19.6443 4.14861 19.3514C3.85572 19.0585 3.85572 18.5836 4.14861 18.2907L4.54145 17.8979C4.83434 17.605 5.30921 17.605 5.60211 17.8979ZM11.75 20C12.1642 20 12.5 20.3358 12.5 20.75V21.75C12.5 22.1642 12.1642 22.5 11.75 22.5C11.3358 22.5 11 22.1642 11 21.75V20.75C11 20.3358 11.3358 20 11.75 20Z" fill="#F1EEE4"/>
</svg>
