<svg width="24" height="24" viewBox="0 0 24 24" fill="none" xmlns="http://www.w3.org/2000/svg">
<g clip-path="url(#clip0_386_214)">
<path d="M11.9475 0.988159C10.4857 0.988159 9.20551 2.51239 9.20551 4.5081C9.20551 6.5038 10.4857 8.02794 11.9475 8.02794C13.4093 8.02794 14.6896 6.5038 14.6896 4.5081C14.6896 2.51239 13.4093 0.988159 11.9475 0.988159ZM10.4352 3.42932H11.3113V5.57258H10.4352V3.42941V3.42932ZM12.4885 3.42932H13.3646V5.57258H12.4885V3.42941V3.42932ZM14.5483 7.56744C13.8986 8.38625 12.9852 8.90385 11.9475 8.90385C10.9476 8.90385 10.0635 8.42305 9.41912 7.65575C8.89759 7.85075 8.4805 8.20363 8.12209 8.70036C7.6689 9.32863 7.33084 10.1886 7.09445 11.1711C6.8725 12.0935 6.74073 13.1171 6.66311 14.1529C7.03229 14.3411 7.3412 14.6141 7.58232 14.9395C7.89854 15.3662 8.11276 15.8754 8.26482 16.4278C8.42396 15.8933 8.63748 15.4014 8.93626 14.9864C9.17439 14.6557 9.47542 14.3751 9.83415 14.1809C9.61806 13.7307 9.49618 13.2112 9.49618 12.6673C9.49618 11.052 10.5677 9.64893 12.0074 9.64893C13.447 9.64893 14.5186 11.0521 14.5186 12.6673C14.5186 13.1788 14.4107 13.6689 14.2182 14.1C14.6364 14.2881 14.9828 14.5824 15.2476 14.9396C15.573 15.3787 15.7902 15.9053 15.943 16.4763C16.1036 15.9231 16.321 15.414 16.629 14.9864C16.838 14.6961 17.0956 14.4443 17.3982 14.2558C17.3474 13.1623 17.2447 12.0782 17.0348 11.1084C16.8207 10.1187 16.4955 9.25775 16.0352 8.63446C15.6466 8.10838 15.1767 7.74505 14.5483 7.56739L14.5483 7.56744ZM4.21618 10.525C3.45118 10.525 2.73976 11.2595 2.60434 12.3058H3.74087V13.1817H2.62867C2.81026 14.1459 3.48896 14.8097 4.21618 14.8097C4.94336 14.8097 5.62206 14.1459 5.80365 13.1817H4.61696V12.3057H5.82793C5.69256 11.2594 4.98109 10.5249 4.21614 10.5249L4.21618 10.525ZM12.0074 10.525C11.2424 10.525 10.531 11.2595 10.3956 12.3058H11.5281V13.1817H10.4199C10.5567 13.9087 10.9764 14.4647 11.4863 14.6944C11.1887 14.717 10.913 14.7526 10.6839 14.7975L10.6826 14.7978L10.6813 14.7981C10.2437 14.8811 9.92523 15.1121 9.64726 15.4982C9.36929 15.8843 9.15376 16.4279 9.00296 17.0568C8.73362 18.1805 8.67175 19.5541 8.66092 20.7735H9.76262V18.3807H10.6387V23.21H13.5406V18.3807H14.4165V20.7735H15.4435C15.4415 19.5387 15.4201 18.1469 15.1728 17.0158C15.0347 16.3837 14.8259 15.842 14.5437 15.4612C14.2615 15.0804 13.9277 14.8503 13.4337 14.773L13.4246 14.7716L13.4157 14.7698C13.1701 14.7208 12.877 14.6895 12.5678 14.6756C13.0598 14.4356 13.4616 13.8899 13.5949 13.1817H12.4042V12.3057H13.6192C13.4838 11.2594 12.7723 10.5249 12.0074 10.5249V10.525ZM19.7882 10.525C19.0232 10.525 18.3119 11.2595 18.1765 12.3058H19.3154V13.1817H18.2007C18.3823 14.1459 19.061 14.8097 19.7882 14.8097C20.5155 14.8097 21.1942 14.1459 21.3758 13.1817H20.1914V12.3057H21.4001C21.2646 11.2594 20.5532 10.5249 19.7882 10.5249V10.525ZM5.98056 14.8187C5.53492 15.35 4.91978 15.6856 4.21618 15.6856C3.56954 15.6856 2.99762 15.402 2.56323 14.9438C2.32965 15.0657 2.13362 15.2496 1.95461 15.4982C1.67664 15.8843 1.46111 16.4279 1.31036 17.0568C1.04096 18.1805 0.97909 19.5541 0.968262 20.7735H2.0582V18.3807H2.9342V23.21H5.83604V18.3807H6.71214V20.7735H7.77831C7.77629 19.5388 7.75487 18.1469 7.50761 17.0158C7.36942 16.3837 7.16073 15.842 6.87845 15.4612C6.63868 15.1377 6.36132 14.9233 5.98051 14.8187L5.98056 14.8187ZM21.5123 14.8662C21.0702 15.3699 20.4707 15.6856 19.7882 15.6856C19.1135 15.6856 18.5196 15.3774 18.0789 14.8836C17.7862 15.001 17.5511 15.2047 17.3398 15.4983C17.0619 15.8843 16.8463 16.4279 16.6956 17.0569C16.4262 18.1806 16.3644 19.5541 16.3535 20.7736H17.4282V18.3807H18.3043V23.21H21.206V18.3807H22.082V20.7735H23.1366C23.1358 19.5374 23.1201 18.145 22.8786 17.0137C22.7436 16.3815 22.538 15.8401 22.2585 15.4599C22.0525 15.18 21.8184 14.982 21.5122 14.8662L21.5123 14.8662Z" fill="#474442"/>
</g>
<defs>
<clipPath id="clip0_386_214">
<rect width="24" height="24" fill="white"/>
</clipPath>
</defs>
</svg>
